<?xml version="1.0" encoding="utf-8" standalone="no"?>
<!DOCTYPE svg PUBLIC "-//W3C//DTD SVG 1.1//EN"
  "http://www.w3.org/Graphics/SVG/1.1/DTD/svg11.dtd">
<!-- Created with matplotlib (https://matplotlib.org/) -->
<svg height="360pt" version="1.1" viewBox="0 0 792 360" width="792pt" xmlns="http://www.w3.org/2000/svg" xmlns:xlink="http://www.w3.org/1999/xlink">
 <metadata>
  <rdf:RDF xmlns:cc="http://creativecommons.org/ns#" xmlns:dc="http://purl.org/dc/elements/1.1/" xmlns:rdf="http://www.w3.org/1999/02/22-rdf-syntax-ns#">
   <cc:Work>
    <dc:type rdf:resource="http://purl.org/dc/dcmitype/StillImage"/>
    <dc:date>2020-09-04T23:44:29.075762</dc:date>
    <dc:format>image/svg+xml</dc:format>
    <dc:creator>
     <cc:Agent>
      <dc:title>Matplotlib v3.3.1, https://matplotlib.org/</dc:title>
     </cc:Agent>
    </dc:creator>
   </cc:Work>
  </rdf:RDF>
 </metadata>
 <defs>
  <style type="text/css">*{stroke-linecap:butt;stroke-linejoin:round;}</style>
 </defs>
 <g id="figure_1">
  <g id="patch_1">
   <path d="M 0 360 
L 792 360 
L 792 0 
L 0 0 
z
" style="fill:#ffffff;"/>
  </g>
  <g id="axes_1">
   <g id="PathCollection_1">
    <defs>
     <path d="M 0 3 
C 0.795609 3 1.55874 2.683901 2.12132 2.12132 
C 2.683901 1.55874 3 0.795609 3 0 
C 3 -0.795609 2.683901 -1.55874 2.12132 -2.12132 
C 1.55874 -2.683901 0.795609 -3 0 -3 
C -0.795609 -3 -1.55874 -2.683901 -2.12132 -2.12132 
C -2.683901 -1.55874 -3 -0.795609 -3 0 
C -3 0.795609 -2.683901 1.55874 -2.12132 2.12132 
C -1.55874 2.683901 -0.795609 3 0 3 
z
" id="mcbcb3ad317" style="stroke:#000000;"/>
    </defs>
    <g clip-path="url(#pa8d6632425)">
     <use style="stroke:#000000;" x="632.456674" xlink:href="#mcbcb3ad317" y="190.469589"/>
     <use style="stroke:#000000;" x="244.748148" xlink:href="#mcbcb3ad317" y="228.773624"/>
     <use style="stroke:#000000;" x="641.833421" xlink:href="#mcbcb3ad317" y="171.859867"/>
     <use style="stroke:#000000;" x="175.444592" xlink:href="#mcbcb3ad317" y="181.503288"/>
     <use style="stroke:#000000;" x="417.604013" xlink:href="#mcbcb3ad317" y="204.800902"/>
     <use style="stroke:#000000;" x="329.234232" xlink:href="#mcbcb3ad317" y="69.953562"/>
     <use style="stroke:#000000;" x="374.402993" xlink:href="#mcbcb3ad317" y="155.355066"/>
     <use style="stroke:#000000;" x="325.506845" xlink:href="#mcbcb3ad317" y="69.20672"/>
     <use style="stroke:#000000;" x="133.274583" xlink:href="#mcbcb3ad317" y="286.759488"/>
     <use style="stroke:#000000;" x="490.734139" xlink:href="#mcbcb3ad317" y="211.913356"/>
     <use style="stroke:#000000;" x="288.068637" xlink:href="#mcbcb3ad317" y="86.369084"/>
     <use style="stroke:#000000;" x="453.097272" xlink:href="#mcbcb3ad317" y="156.645458"/>
     <use style="stroke:#000000;" x="271.189958" xlink:href="#mcbcb3ad317" y="152.793236"/>
     <use style="stroke:#000000;" x="399.502762" xlink:href="#mcbcb3ad317" y="207.884605"/>
     <use style="stroke:#000000;" x="337.753766" xlink:href="#mcbcb3ad317" y="71.038846"/>
    </g>
   </g>
   <g id="line2d_1"/>
  </g>
 </g>
 <defs>
  <clipPath id="pa8d6632425">
   <rect height="271.8" width="613.8" x="99" y="43.2"/>
  </clipPath>
 </defs>
</svg>
