<?xml version="1.0" encoding="utf-8" standalone="no"?>
<!DOCTYPE svg PUBLIC "-//W3C//DTD SVG 1.1//EN"
  "http://www.w3.org/Graphics/SVG/1.1/DTD/svg11.dtd">
<!-- Created with matplotlib (https://matplotlib.org/) -->
<svg height="360pt" version="1.1" viewBox="0 0 792 360" width="792pt" xmlns="http://www.w3.org/2000/svg" xmlns:xlink="http://www.w3.org/1999/xlink">
 <metadata>
  <rdf:RDF xmlns:cc="http://creativecommons.org/ns#" xmlns:dc="http://purl.org/dc/elements/1.1/" xmlns:rdf="http://www.w3.org/1999/02/22-rdf-syntax-ns#">
   <cc:Work>
    <dc:type rdf:resource="http://purl.org/dc/dcmitype/StillImage"/>
    <dc:date>2020-09-04T23:44:29.126980</dc:date>
    <dc:format>image/svg+xml</dc:format>
    <dc:creator>
     <cc:Agent>
      <dc:title>Matplotlib v3.3.1, https://matplotlib.org/</dc:title>
     </cc:Agent>
    </dc:creator>
   </cc:Work>
  </rdf:RDF>
 </metadata>
 <defs>
  <style type="text/css">*{stroke-linecap:butt;stroke-linejoin:round;}</style>
 </defs>
 <g id="figure_1">
  <g id="patch_1">
   <path d="M 0 360 
L 792 360 
L 792 0 
L 0 0 
z
" style="fill:#ffffff;"/>
  </g>
  <g id="axes_1">
   <g id="PathCollection_1">
    <defs>
     <path d="M 0 3 
C 0.795609 3 1.55874 2.683901 2.12132 2.12132 
C 2.683901 1.55874 3 0.795609 3 0 
C 3 -0.795609 2.683901 -1.55874 2.12132 -2.12132 
C 1.55874 -2.683901 0.795609 -3 0 -3 
C -0.795609 -3 -1.55874 -2.683901 -2.12132 -2.12132 
C -2.683901 -1.55874 -3 -0.795609 -3 0 
C -3 0.795609 -2.683901 1.55874 -2.12132 2.12132 
C -1.55874 2.683901 -0.795609 3 0 3 
z
" id="m1391eef154" style="stroke:#000000;"/>
    </defs>
    <g clip-path="url(#p97aff77d6d)">
     <use style="stroke:#000000;" x="632.456674" xlink:href="#m1391eef154" y="190.469589"/>
     <use style="stroke:#000000;" x="244.748148" xlink:href="#m1391eef154" y="228.773624"/>
     <use style="stroke:#000000;" x="641.833421" xlink:href="#m1391eef154" y="171.859867"/>
     <use style="stroke:#000000;" x="175.444592" xlink:href="#m1391eef154" y="181.503288"/>
     <use style="stroke:#000000;" x="417.604013" xlink:href="#m1391eef154" y="204.800902"/>
     <use style="stroke:#000000;" x="329.234232" xlink:href="#m1391eef154" y="69.953562"/>
     <use style="stroke:#000000;" x="374.402993" xlink:href="#m1391eef154" y="155.355066"/>
     <use style="stroke:#000000;" x="325.506845" xlink:href="#m1391eef154" y="69.20672"/>
     <use style="stroke:#000000;" x="133.274583" xlink:href="#m1391eef154" y="286.759488"/>
     <use style="stroke:#000000;" x="490.734139" xlink:href="#m1391eef154" y="211.913356"/>
     <use style="stroke:#000000;" x="288.068637" xlink:href="#m1391eef154" y="86.369084"/>
     <use style="stroke:#000000;" x="453.097272" xlink:href="#m1391eef154" y="156.645458"/>
     <use style="stroke:#000000;" x="271.189958" xlink:href="#m1391eef154" y="152.793236"/>
     <use style="stroke:#000000;" x="399.502762" xlink:href="#m1391eef154" y="207.884605"/>
     <use style="stroke:#000000;" x="337.753766" xlink:href="#m1391eef154" y="71.038846"/>
    </g>
   </g>
   <g id="line2d_1">
    <path clip-path="url(#p97aff77d6d)" d="M 99 248.525956 
L 108.666137 270.928901 
L 113.499206 279.713966 
L 118.332274 285.38926 
L 123.165361 290.633433 
L 127.99843 290.762558 
L 132.831498 287.185949 
L 137.664567 280.868421 
L 142.497635 270.870679 
L 147.330704 258.498439 
L 152.163772 244.732679 
L 156.996859 229.682737 
L 166.662996 202.578015 
L 171.496065 190.390437 
L 176.329134 179.878263 
L 181.162202 172.300996 
L 185.995271 166.892148 
L 190.828339 165.047641 
L 195.661408 165.032094 
L 200.494495 167.005599 
L 205.327563 171.058805 
L 210.160632 177.199962 
L 219.826769 196.608777 
L 224.659837 207.991092 
L 229.492906 216.644562 
L 234.325993 223.884064 
L 239.159061 228.570448 
L 243.99213 229.276263 
L 248.825199 225.621921 
L 253.658267 217.206704 
L 258.491336 204.136662 
L 263.324404 186.806824 
L 268.157473 166.218646 
L 277.82361 123.624501 
L 282.656697 104.243019 
L 287.489765 88.215643 
L 292.322834 76.327667 
L 297.155902 68.621345 
L 301.988971 65.005123 
L 306.822058 64.262558 
L 311.655126 65.188467 
L 316.488195 67.170895 
L 321.321264 68.819756 
L 326.154332 69.583902 
L 330.987401 69.936107 
L 335.820469 70.675346 
L 340.653538 72.810918 
L 345.486606 77.367583 
L 350.319675 84.67724 
L 355.152744 94.961362 
L 359.98583 108.151174 
L 364.818899 123.142342 
L 374.485036 155.566321 
L 379.318105 170.393264 
L 384.151173 183.458847 
L 388.98426 193.807248 
L 393.817329 201.704118 
L 398.650397 207.00888 
L 403.483466 209.897598 
L 408.316534 210.150484 
L 413.149603 208.223166 
L 417.982671 204.331824 
L 422.81574 198.850208 
L 427.648809 192.06326 
L 437.314946 175.816118 
L 442.148014 167.894647 
L 446.981083 161.182151 
L 451.814151 157.347288 
L 456.647256 156.808923 
L 461.480325 159.532257 
L 466.313394 165.265376 
L 471.146462 173.634897 
L 480.812599 193.855931 
L 485.645668 203.372209 
L 490.478736 211.513681 
L 495.311805 217.610534 
L 500.144874 221.274509 
L 504.977942 222.329128 
L 509.811011 221.218707 
L 514.644116 217.665467 
L 519.477184 213.007729 
L 524.310253 207.696595 
L 533.97639 196.672555 
L 538.809459 191.922302 
L 543.642527 188.365777 
L 548.475596 186.167708 
L 553.308664 185.38005 
L 558.141733 185.110338 
L 562.974801 185.426824 
L 567.80787 186.319633 
L 572.640939 188.242794 
L 577.474007 191.258449 
L 582.307076 195.174242 
L 587.140144 199.698182 
L 596.806281 209.364754 
L 601.63935 213.440829 
L 606.472418 215.220943 
L 611.305487 215.973069 
L 616.138556 213.732132 
L 620.971661 208.76424 
L 625.804729 202.128376 
L 630.637798 194.037633 
L 635.470866 184.782017 
L 645.137004 165.257135 
L 649.970072 156.550201 
L 654.803141 149.221689 
L 659.636209 143.36709 
L 664.469314 139.552754 
L 669.302383 138.044294 
L 674.135452 138.614522 
L 683.801589 142.602935 
L 688.634657 145.33304 
L 693.467726 148.651482 
L 698.300794 152.302227 
L 703.133863 156.15228 
L 707.966931 159.286219 
L 712.8 162.185068 
L 712.8 162.185068 
" style="fill:none;stroke:#0000ff;stroke-linecap:round;stroke-width:1.5;"/>
   </g>
  </g>
 </g>
 <defs>
  <clipPath id="p97aff77d6d">
   <rect height="271.8" width="613.8" x="99" y="43.2"/>
  </clipPath>
 </defs>
</svg>
