<?xml version="1.0" encoding="utf-8" standalone="no"?>
<!DOCTYPE svg PUBLIC "-//W3C//DTD SVG 1.1//EN"
  "http://www.w3.org/Graphics/SVG/1.1/DTD/svg11.dtd">
<!-- Created with matplotlib (https://matplotlib.org/) -->
<svg height="360pt" version="1.1" viewBox="0 0 792 360" width="792pt" xmlns="http://www.w3.org/2000/svg" xmlns:xlink="http://www.w3.org/1999/xlink">
 <metadata>
  <rdf:RDF xmlns:cc="http://creativecommons.org/ns#" xmlns:dc="http://purl.org/dc/elements/1.1/" xmlns:rdf="http://www.w3.org/1999/02/22-rdf-syntax-ns#">
   <cc:Work>
    <dc:type rdf:resource="http://purl.org/dc/dcmitype/StillImage"/>
    <dc:date>2020-09-04T23:44:29.186671</dc:date>
    <dc:format>image/svg+xml</dc:format>
    <dc:creator>
     <cc:Agent>
      <dc:title>Matplotlib v3.3.1, https://matplotlib.org/</dc:title>
     </cc:Agent>
    </dc:creator>
   </cc:Work>
  </rdf:RDF>
 </metadata>
 <defs>
  <style type="text/css">*{stroke-linecap:butt;stroke-linejoin:round;}</style>
 </defs>
 <g id="figure_1">
  <g id="patch_1">
   <path d="M 0 360 
L 792 360 
L 792 0 
L 0 0 
z
" style="fill:#ffffff;"/>
  </g>
  <g id="axes_1">
   <g id="PathCollection_1">
    <defs>
     <path d="M 0 3 
C 0.795609 3 1.55874 2.683901 2.12132 2.12132 
C 2.683901 1.55874 3 0.795609 3 0 
C 3 -0.795609 2.683901 -1.55874 2.12132 -2.12132 
C 1.55874 -2.683901 0.795609 -3 0 -3 
C -0.795609 -3 -1.55874 -2.683901 -2.12132 -2.12132 
C -2.683901 -1.55874 -3 -0.795609 -3 0 
C -3 0.795609 -2.683901 1.55874 -2.12132 2.12132 
C -1.55874 2.683901 -0.795609 3 0 3 
z
" id="m4a0568d9b8" style="stroke:#000000;"/>
    </defs>
    <g clip-path="url(#pe1fefc0529)">
     <use style="stroke:#000000;" x="632.456674" xlink:href="#m4a0568d9b8" y="186.987215"/>
     <use style="stroke:#000000;" x="244.748148" xlink:href="#m4a0568d9b8" y="218.907244"/>
     <use style="stroke:#000000;" x="641.833421" xlink:href="#m4a0568d9b8" y="171.479114"/>
     <use style="stroke:#000000;" x="175.444592" xlink:href="#m4a0568d9b8" y="179.515298"/>
     <use style="stroke:#000000;" x="417.604013" xlink:href="#m4a0568d9b8" y="198.929976"/>
     <use style="stroke:#000000;" x="329.234232" xlink:href="#m4a0568d9b8" y="86.557193"/>
     <use style="stroke:#000000;" x="374.402993" xlink:href="#m4a0568d9b8" y="157.725113"/>
     <use style="stroke:#000000;" x="325.506845" xlink:href="#m4a0568d9b8" y="85.934824"/>
     <use style="stroke:#000000;" x="133.274583" xlink:href="#m4a0568d9b8" y="267.228798"/>
     <use style="stroke:#000000;" x="490.734139" xlink:href="#m4a0568d9b8" y="204.857022"/>
     <use style="stroke:#000000;" x="288.068637" xlink:href="#m4a0568d9b8" y="100.236794"/>
     <use style="stroke:#000000;" x="453.097272" xlink:href="#m4a0568d9b8" y="158.800439"/>
     <use style="stroke:#000000;" x="271.189958" xlink:href="#m4a0568d9b8" y="155.590255"/>
     <use style="stroke:#000000;" x="399.502762" xlink:href="#m4a0568d9b8" y="201.499729"/>
     <use style="stroke:#000000;" x="337.753766" xlink:href="#m4a0568d9b8" y="87.461596"/>
    </g>
   </g>
   <g id="PathCollection_2">
    <defs>
     <path d="M 0 3 
C 0.795609 3 1.55874 2.683901 2.12132 2.12132 
C 2.683901 1.55874 3 0.795609 3 0 
C 3 -0.795609 2.683901 -1.55874 2.12132 -2.12132 
C 1.55874 -2.683901 0.795609 -3 0 -3 
C -0.795609 -3 -1.55874 -2.683901 -2.12132 -2.12132 
C -2.683901 -1.55874 -3 -0.795609 -3 0 
C -3 0.795609 -2.683901 1.55874 -2.12132 2.12132 
C -1.55874 2.683901 -0.795609 3 0 3 
z
" id="me027d56c21" style="stroke:#000000;stroke-opacity:0;"/>
    </defs>
    <g clip-path="url(#pe1fefc0529)">
     <use style="fill-opacity:0;stroke:#000000;stroke-opacity:0;" x="632.456674" xlink:href="#me027d56c21" y="186.987215"/>
     <use style="fill-opacity:0;stroke:#000000;stroke-opacity:0;" x="244.748148" xlink:href="#me027d56c21" y="218.907244"/>
     <use style="fill-opacity:0;stroke:#000000;stroke-opacity:0;" x="641.833421" xlink:href="#me027d56c21" y="171.479114"/>
     <use style="fill-opacity:0;stroke:#000000;stroke-opacity:0;" x="175.444592" xlink:href="#me027d56c21" y="179.515298"/>
     <use style="fill-opacity:0;stroke:#000000;stroke-opacity:0;" x="417.604013" xlink:href="#me027d56c21" y="198.929976"/>
     <use style="fill-opacity:0;stroke:#000000;stroke-opacity:0;" x="329.234232" xlink:href="#me027d56c21" y="86.557193"/>
     <use style="fill-opacity:0;stroke:#000000;stroke-opacity:0;" x="374.402993" xlink:href="#me027d56c21" y="157.725113"/>
     <use style="fill-opacity:0;stroke:#000000;stroke-opacity:0;" x="325.506845" xlink:href="#me027d56c21" y="85.934824"/>
     <use style="fill-opacity:0;stroke:#000000;stroke-opacity:0;" x="133.274583" xlink:href="#me027d56c21" y="267.228798"/>
     <use style="fill-opacity:0;stroke:#000000;stroke-opacity:0;" x="490.734139" xlink:href="#me027d56c21" y="204.857022"/>
     <use style="fill-opacity:0;stroke:#000000;stroke-opacity:0;" x="288.068637" xlink:href="#me027d56c21" y="100.236794"/>
     <use style="fill-opacity:0;stroke:#000000;stroke-opacity:0;" x="453.097272" xlink:href="#me027d56c21" y="158.800439"/>
     <use style="fill-opacity:0;stroke:#000000;stroke-opacity:0;" x="271.189958" xlink:href="#me027d56c21" y="155.590255"/>
     <use style="fill-opacity:0;stroke:#000000;stroke-opacity:0;" x="399.502762" xlink:href="#me027d56c21" y="201.499729"/>
     <use style="fill-opacity:0;stroke:#000000;stroke-opacity:0;" x="337.753766" xlink:href="#me027d56c21" y="87.461596"/>
    </g>
   </g>
   <g id="line2d_1"/>
   <g id="line2d_2">
    <defs>
     <path d="M 0 -5 
L -1.12257 -1.545085 
L -4.755283 -1.545085 
L -1.816356 0.59017 
L -2.938926 4.045085 
L -0 1.90983 
L 2.938926 4.045085 
L 1.816356 0.59017 
L 4.755283 -1.545085 
L 1.12257 -1.545085 
z
" id="me94010f018" style="stroke:#0000ff;stroke-linejoin:bevel;"/>
    </defs>
    <g clip-path="url(#pe1fefc0529)">
     <use style="fill:#0000ff;stroke:#0000ff;stroke-linejoin:bevel;" x="329.234232" xlink:href="#me94010f018" y="86.434905"/>
     <use style="fill:#0000ff;stroke:#0000ff;stroke-linejoin:bevel;" x="702.8999" xlink:href="#me94010f018" y="158.231211"/>
     <use style="fill:#0000ff;stroke:#0000ff;stroke-linejoin:bevel;" x="518.355588" xlink:href="#me94010f018" y="206.729464"/>
     <use style="fill:#0000ff;stroke:#0000ff;stroke-linejoin:bevel;" x="392.683" xlink:href="#me94010f018" y="195.02349"/>
     <use style="fill:#0000ff;stroke:#0000ff;stroke-linejoin:bevel;" x="175.444592" xlink:href="#me94010f018" y="179.536687"/>
     <use style="fill:#0000ff;stroke:#0000ff;stroke-linejoin:bevel;" x="357.685107" xlink:href="#me94010f018" y="112.902495"/>
     <use style="fill:#0000ff;stroke:#0000ff;stroke-linejoin:bevel;" x="269.36424" xlink:href="#me94010f018" y="162.275002"/>
     <use style="fill:#0000ff;stroke:#0000ff;stroke-linejoin:bevel;" x="605.107712" xlink:href="#me94010f018" y="207.519105"/>
     <use style="fill:#0000ff;stroke:#0000ff;stroke-linejoin:bevel;" x="109.047356" xlink:href="#me94010f018" y="254.737"/>
     <use style="fill:#0000ff;stroke:#0000ff;stroke-linejoin:bevel;" x="676.169706" xlink:href="#me94010f018" y="144.340626"/>
    </g>
   </g>
  </g>
 </g>
 <defs>
  <clipPath id="pe1fefc0529">
   <rect height="271.8" width="613.8" x="99" y="43.2"/>
  </clipPath>
 </defs>
</svg>
