<?xml version="1.0" encoding="utf-8" standalone="no"?>
<!DOCTYPE svg PUBLIC "-//W3C//DTD SVG 1.1//EN"
  "http://www.w3.org/Graphics/SVG/1.1/DTD/svg11.dtd">
<!-- Created with matplotlib (https://matplotlib.org/) -->
<svg height="271.8pt" version="1.1" viewBox="0 0 271.8 271.8" width="271.8pt" xmlns="http://www.w3.org/2000/svg" xmlns:xlink="http://www.w3.org/1999/xlink">
 <metadata>
  <rdf:RDF xmlns:cc="http://creativecommons.org/ns#" xmlns:dc="http://purl.org/dc/elements/1.1/" xmlns:rdf="http://www.w3.org/1999/02/22-rdf-syntax-ns#">
   <cc:Work>
    <dc:type rdf:resource="http://purl.org/dc/dcmitype/StillImage"/>
    <dc:date>2020-09-05T10:50:48.773500</dc:date>
    <dc:format>image/svg+xml</dc:format>
    <dc:creator>
     <cc:Agent>
      <dc:title>Matplotlib v3.3.1, https://matplotlib.org/</dc:title>
     </cc:Agent>
    </dc:creator>
   </cc:Work>
  </rdf:RDF>
 </metadata>
 <defs>
  <style type="text/css">*{stroke-linecap:butt;stroke-linejoin:round;}</style>
 </defs>
 <g id="figure_1">
  <g id="patch_1">
   <path d="M 0 271.8 
L 271.8 271.8 
L 271.8 0 
L 0 0 
z
" style="fill:#ffffff;"/>
  </g>
  <g id="axes_1">
   <g id="PathCollection_1">
    <defs>
     <path d="M 0 3 
C 0.795609 3 1.55874 2.683901 2.12132 2.12132 
C 2.683901 1.55874 3 0.795609 3 0 
C 3 -0.795609 2.683901 -1.55874 2.12132 -2.12132 
C 1.55874 -2.683901 0.795609 -3 0 -3 
C -0.795609 -3 -1.55874 -2.683901 -2.12132 -2.12132 
C -2.683901 -1.55874 -3 -0.795609 -3 0 
C -3 0.795609 -2.683901 1.55874 -2.12132 2.12132 
C -1.55874 2.683901 -0.795609 3 0 3 
z
" id="m4c68fa253b" style="stroke:#000000;"/>
    </defs>
    <g clip-path="url(#pc2933b0758)">
     <use style="stroke:#000000;" x="236.22275" xlink:href="#m4c68fa253b" y="199.332439"/>
     <use style="stroke:#000000;" x="64.539502" xlink:href="#m4c68fa253b" y="253.473206"/>
     <use style="stroke:#000000;" x="240.374917" xlink:href="#m4c68fa253b" y="173.028563"/>
     <use style="stroke:#000000;" x="33.850831" xlink:href="#m4c68fa253b" y="186.659039"/>
     <use style="stroke:#000000;" x="141.082716" xlink:href="#m4c68fa253b" y="219.589007"/>
     <use style="stroke:#000000;" x="101.951229" xlink:href="#m4c68fa253b" y="28.989286"/>
     <use style="stroke:#000000;" x="121.952645" xlink:href="#m4c68fa253b" y="149.699883"/>
    </g>
   </g>
   <g id="line2d_1">
    <path clip-path="url(#pc2933b0758)" d="M 0 175.671975 
L 4.280313 175.66864 
L 6.420469 175.845789 
L 8.560626 176.346381 
L 10.70079 176.664619 
L 12.840947 176.241565 
L 14.981103 176.294338 
L 17.12126 176.937717 
L 19.261416 177.955648 
L 21.401573 179.125654 
L 23.541729 180.073785 
L 25.681894 180.632124 
L 27.82205 181.60519 
L 29.962207 182.810132 
L 34.24252 187.329644 
L 36.382676 189.976167 
L 38.522832 193.824141 
L 40.662989 198.458469 
L 42.803145 204.481228 
L 44.94331 211.110101 
L 47.083466 218.132139 
L 53.503936 240.232731 
L 55.644092 247.042573 
L 57.784249 252.454489 
L 59.924413 254.799919 
L 62.06457 254.771628 
L 64.204726 253.821789 
L 66.344883 249.198145 
L 68.485039 242.109633 
L 70.625196 230.741798 
L 72.765352 218.730199 
L 74.905508 204.313362 
L 77.045665 186.229274 
L 79.185821 169.395872 
L 83.466142 133.522728 
L 87.746455 99.21957 
L 89.886612 80.356208 
L 92.026776 63.879707 
L 94.166933 49.644978 
L 96.307089 37.912422 
L 98.447246 30.206886 
L 100.587402 28.299919 
L 102.727559 30.208589 
L 104.867715 36.357896 
L 107.007872 46.046943 
L 109.148028 58.761921 
L 111.288185 73.160291 
L 119.848818 136.202404 
L 124.129131 163.12612 
L 128.409452 186.14829 
L 130.549609 195.555655 
L 132.689765 204.011001 
L 134.829922 210.804271 
L 136.970078 215.696112 
L 139.110235 218.069165 
L 141.250391 219.910089 
L 143.390548 219.829553 
L 145.530704 217.461741 
L 147.670861 215.29688 
L 149.811017 212.002323 
L 154.09133 203.127315 
L 158.371659 193.805574 
L 164.792128 185.772058 
L 169.072441 180.411796 
L 171.212598 178.462986 
L 173.352754 177.08391 
L 175.492911 176.179472 
L 177.633067 175.637614 
L 179.773224 175.399527 
L 181.91338 175.442233 
L 188.333866 176.099738 
L 192.614179 176.112079 
L 194.754335 176.490381 
L 196.894492 177.501644 
L 199.034648 179.26375 
L 201.174804 181.766053 
L 205.455117 188.02267 
L 207.595274 191.269163 
L 209.73543 195.027316 
L 214.015743 206.709621 
L 218.296056 219.562271 
L 220.436213 226.088309 
L 222.576369 231.68475 
L 224.716525 234.137263 
L 226.856682 235.151718 
L 228.996838 231.90378 
L 231.137011 224.918237 
L 233.277168 215.630854 
L 235.417324 204.321628 
L 237.55748 191.30087 
L 241.837793 163.626739 
L 243.97795 151.199437 
L 246.118106 140.707199 
L 248.258263 132.336561 
L 250.398435 126.902539 
L 252.538592 124.772765 
L 254.678748 125.619033 
L 258.959061 131.495715 
L 261.099218 135.432097 
L 263.239374 140.194887 
L 267.519687 150.89898 
L 269.659844 155.325592 
L 271.8 159.446637 
L 271.8 159.446637 
" style="fill:none;stroke:#0000ff;stroke-linecap:round;stroke-width:1.5;"/>
   </g>
  </g>
 </g>
 <defs>
  <clipPath id="pc2933b0758">
   <rect height="271.8" width="271.8" x="0" y="0"/>
  </clipPath>
 </defs>
</svg>
