<?xml version="1.0" encoding="utf-8" standalone="no"?>
<!DOCTYPE svg PUBLIC "-//W3C//DTD SVG 1.1//EN"
  "http://www.w3.org/Graphics/SVG/1.1/DTD/svg11.dtd">
<!-- Created with matplotlib (https://matplotlib.org/) -->
<svg height="271.8pt" version="1.1" viewBox="0 0 271.8 271.8" width="271.8pt" xmlns="http://www.w3.org/2000/svg" xmlns:xlink="http://www.w3.org/1999/xlink">
 <metadata>
  <rdf:RDF xmlns:cc="http://creativecommons.org/ns#" xmlns:dc="http://purl.org/dc/elements/1.1/" xmlns:rdf="http://www.w3.org/1999/02/22-rdf-syntax-ns#">
   <cc:Work>
    <dc:type rdf:resource="http://purl.org/dc/dcmitype/StillImage"/>
    <dc:date>2020-09-05T10:50:48.181997</dc:date>
    <dc:format>image/svg+xml</dc:format>
    <dc:creator>
     <cc:Agent>
      <dc:title>Matplotlib v3.3.1, https://matplotlib.org/</dc:title>
     </cc:Agent>
    </dc:creator>
   </cc:Work>
  </rdf:RDF>
 </metadata>
 <defs>
  <style type="text/css">*{stroke-linecap:butt;stroke-linejoin:round;}</style>
 </defs>
 <g id="figure_1">
  <g id="patch_1">
   <path d="M 0 271.8 
L 271.8 271.8 
L 271.8 0 
L 0 0 
z
" style="fill:#ffffff;"/>
  </g>
  <g id="axes_1">
   <g id="PathCollection_1">
    <defs>
     <path d="M 0 3 
C 0.795609 3 1.55874 2.683901 2.12132 2.12132 
C 2.683901 1.55874 3 0.795609 3 0 
C 3 -0.795609 2.683901 -1.55874 2.12132 -2.12132 
C 1.55874 -2.683901 0.795609 -3 0 -3 
C -0.795609 -3 -1.55874 -2.683901 -2.12132 -2.12132 
C -2.683901 -1.55874 -3 -0.795609 -3 0 
C -3 0.795609 -2.683901 1.55874 -2.12132 2.12132 
C -1.55874 2.683901 -0.795609 3 0 3 
z
" id="m5d7321844a" style="stroke:#000000;"/>
    </defs>
    <g clip-path="url(#p5df6820142)">
     <use style="stroke:#000000;" x="236.22275" xlink:href="#m5d7321844a" y="194.410285"/>
     <use style="stroke:#000000;" x="64.539502" xlink:href="#m5d7321844a" y="239.527591"/>
     <use style="stroke:#000000;" x="240.374917" xlink:href="#m5d7321844a" y="172.490388"/>
     <use style="stroke:#000000;" x="33.850831" xlink:href="#m5d7321844a" y="183.849118"/>
     <use style="stroke:#000000;" x="141.082716" xlink:href="#m5d7321844a" y="211.290758"/>
     <use style="stroke:#000000;" x="101.951229" xlink:href="#m5d7321844a" y="52.457657"/>
     <use style="stroke:#000000;" x="121.952645" xlink:href="#m5d7321844a" y="153.049822"/>
    </g>
   </g>
   <g id="PathCollection_2">
    <defs>
     <path d="M 0 3 
C 0.795609 3 1.55874 2.683901 2.12132 2.12132 
C 2.683901 1.55874 3 0.795609 3 0 
C 3 -0.795609 2.683901 -1.55874 2.12132 -2.12132 
C 1.55874 -2.683901 0.795609 -3 0 -3 
C -0.795609 -3 -1.55874 -2.683901 -2.12132 -2.12132 
C -2.683901 -1.55874 -3 -0.795609 -3 0 
C -3 0.795609 -2.683901 1.55874 -2.12132 2.12132 
C -1.55874 2.683901 -0.795609 3 0 3 
z
" id="md6be0c2cc1" style="stroke:#000000;stroke-opacity:0;"/>
    </defs>
    <g clip-path="url(#p5df6820142)">
     <use style="fill-opacity:0;stroke:#000000;stroke-opacity:0;" x="236.22275" xlink:href="#md6be0c2cc1" y="194.410285"/>
     <use style="fill-opacity:0;stroke:#000000;stroke-opacity:0;" x="64.539502" xlink:href="#md6be0c2cc1" y="239.527591"/>
     <use style="fill-opacity:0;stroke:#000000;stroke-opacity:0;" x="240.374917" xlink:href="#md6be0c2cc1" y="172.490388"/>
     <use style="fill-opacity:0;stroke:#000000;stroke-opacity:0;" x="33.850831" xlink:href="#md6be0c2cc1" y="183.849118"/>
     <use style="fill-opacity:0;stroke:#000000;stroke-opacity:0;" x="141.082716" xlink:href="#md6be0c2cc1" y="211.290758"/>
     <use style="fill-opacity:0;stroke:#000000;stroke-opacity:0;" x="101.951229" xlink:href="#md6be0c2cc1" y="52.457657"/>
     <use style="fill-opacity:0;stroke:#000000;stroke-opacity:0;" x="121.952645" xlink:href="#md6be0c2cc1" y="153.049822"/>
    </g>
   </g>
   <g id="line2d_1"/>
   <g id="line2d_2">
    <defs>
     <path d="M 0 -5 
L -1.12257 -1.545085 
L -4.755283 -1.545085 
L -1.816356 0.59017 
L -2.938926 4.045085 
L -0 1.90983 
L 2.938926 4.045085 
L 1.816356 0.59017 
L 4.755283 -1.545085 
L 1.12257 -1.545085 
z
" id="m1f1537b575" style="stroke:#ff0000;stroke-linejoin:bevel;"/>
    </defs>
    <g clip-path="url(#p5df6820142)">
     <use style="fill:#ff0000;stroke:#ff0000;stroke-linejoin:bevel;" x="101.951229" xlink:href="#m1f1537b575" y="52.544102"/>
     <use style="fill:#ff0000;stroke:#ff0000;stroke-linejoin:bevel;" x="267.416085" xlink:href="#m1f1537b575" y="153.823877"/>
     <use style="fill:#ff0000;stroke:#ff0000;stroke-linejoin:bevel;" x="185.697049" xlink:href="#m1f1537b575" y="174.888429"/>
     <use style="fill:#ff0000;stroke:#ff0000;stroke-linejoin:bevel;" x="130.047311" xlink:href="#m1f1537b575" y="189.454412"/>
     <use style="fill:#ff0000;stroke:#ff0000;stroke-linejoin:bevel;" x="33.850831" xlink:href="#m1f1537b575" y="183.904272"/>
     <use style="fill:#ff0000;stroke:#ff0000;stroke-linejoin:bevel;" x="114.54971" xlink:href="#m1f1537b575" y="109.348328"/>
     <use style="fill:#ff0000;stroke:#ff0000;stroke-linejoin:bevel;" x="75.439883" xlink:href="#m1f1537b575" y="195.034556"/>
     <use style="fill:#ff0000;stroke:#ff0000;stroke-linejoin:bevel;" x="224.112213" xlink:href="#m1f1537b575" y="223.366656"/>
     <use style="fill:#ff0000;stroke:#ff0000;stroke-linejoin:bevel;" x="4.449123" xlink:href="#m1f1537b575" y="174.693733"/>
     <use style="fill:#ff0000;stroke:#ff0000;stroke-linejoin:bevel;" x="255.579547" xlink:href="#m1f1537b575" y="133.811874"/>
    </g>
   </g>
  </g>
 </g>
 <defs>
  <clipPath id="p5df6820142">
   <rect height="271.8" width="271.8" x="0" y="0"/>
  </clipPath>
 </defs>
</svg>
