<?xml version="1.0" encoding="utf-8" standalone="no"?>
<!DOCTYPE svg PUBLIC "-//W3C//DTD SVG 1.1//EN"
  "http://www.w3.org/Graphics/SVG/1.1/DTD/svg11.dtd">
<!-- Created with matplotlib (https://matplotlib.org/) -->
<svg height="271.8pt" version="1.1" viewBox="0 0 271.8 271.8" width="271.8pt" xmlns="http://www.w3.org/2000/svg" xmlns:xlink="http://www.w3.org/1999/xlink">
 <metadata>
  <rdf:RDF xmlns:cc="http://creativecommons.org/ns#" xmlns:dc="http://purl.org/dc/elements/1.1/" xmlns:rdf="http://www.w3.org/1999/02/22-rdf-syntax-ns#">
   <cc:Work>
    <dc:type rdf:resource="http://purl.org/dc/dcmitype/StillImage"/>
    <dc:date>2020-09-05T10:50:49.106422</dc:date>
    <dc:format>image/svg+xml</dc:format>
    <dc:creator>
     <cc:Agent>
      <dc:title>Matplotlib v3.3.1, https://matplotlib.org/</dc:title>
     </cc:Agent>
    </dc:creator>
   </cc:Work>
  </rdf:RDF>
 </metadata>
 <defs>
  <style type="text/css">*{stroke-linecap:butt;stroke-linejoin:round;}</style>
 </defs>
 <g id="figure_1">
  <g id="patch_1">
   <path d="M 0 271.8 
L 271.8 271.8 
L 271.8 0 
L 0 0 
z
" style="fill:#ffffff;"/>
  </g>
  <g id="axes_1">
   <g id="PathCollection_1">
    <defs>
     <path d="M 0 3 
C 0.795609 3 1.55874 2.683901 2.12132 2.12132 
C 2.683901 1.55874 3 0.795609 3 0 
C 3 -0.795609 2.683901 -1.55874 2.12132 -2.12132 
C 1.55874 -2.683901 0.795609 -3 0 -3 
C -0.795609 -3 -1.55874 -2.683901 -2.12132 -2.12132 
C -2.683901 -1.55874 -3 -0.795609 -3 0 
C -3 0.795609 -2.683901 1.55874 -2.12132 2.12132 
C -1.55874 2.683901 -0.795609 3 0 3 
z
" id="m20e87e1aa6" style="stroke:#000000;"/>
    </defs>
    <g clip-path="url(#p94c4c6d05c)">
     <use style="stroke:#000000;" x="159.512841" xlink:href="#m20e87e1aa6" y="25.120995"/>
     <use style="stroke:#000000;" x="68.795385" xlink:href="#m20e87e1aa6" y="195.668294"/>
     <use style="stroke:#000000;" x="95.225622" xlink:href="#m20e87e1aa6" y="71.638265"/>
     <use style="stroke:#000000;" x="93.58279" xlink:href="#m20e87e1aa6" y="79.256173"/>
     <use style="stroke:#000000;" x="62.591938" xlink:href="#m20e87e1aa6" y="169.902648"/>
     <use style="stroke:#000000;" x="56.248178" xlink:href="#m20e87e1aa6" y="112.333999"/>
     <use style="stroke:#000000;" x="99.889337" xlink:href="#m20e87e1aa6" y="51.174337"/>
    </g>
   </g>
   <g id="PathCollection_2">
    <defs>
     <path d="M 0 3 
C 0.795609 3 1.55874 2.683901 2.12132 2.12132 
C 2.683901 1.55874 3 0.795609 3 0 
C 3 -0.795609 2.683901 -1.55874 2.12132 -2.12132 
C 1.55874 -2.683901 0.795609 -3 0 -3 
C -0.795609 -3 -1.55874 -2.683901 -2.12132 -2.12132 
C -2.683901 -1.55874 -3 -0.795609 -3 0 
C -3 0.795609 -2.683901 1.55874 -2.12132 2.12132 
C -1.55874 2.683901 -0.795609 3 0 3 
z
" id="m54bcb102f9" style="stroke:#000000;stroke-opacity:0;"/>
    </defs>
    <g clip-path="url(#p94c4c6d05c)">
     <use style="fill-opacity:0;stroke:#000000;stroke-opacity:0;" x="159.512841" xlink:href="#m54bcb102f9" y="25.120995"/>
     <use style="fill-opacity:0;stroke:#000000;stroke-opacity:0;" x="68.795385" xlink:href="#m54bcb102f9" y="195.668294"/>
     <use style="fill-opacity:0;stroke:#000000;stroke-opacity:0;" x="95.225622" xlink:href="#m54bcb102f9" y="71.638265"/>
     <use style="fill-opacity:0;stroke:#000000;stroke-opacity:0;" x="93.58279" xlink:href="#m54bcb102f9" y="79.256173"/>
     <use style="fill-opacity:0;stroke:#000000;stroke-opacity:0;" x="62.591938" xlink:href="#m54bcb102f9" y="169.902648"/>
     <use style="fill-opacity:0;stroke:#000000;stroke-opacity:0;" x="56.248178" xlink:href="#m54bcb102f9" y="112.333999"/>
     <use style="fill-opacity:0;stroke:#000000;stroke-opacity:0;" x="99.889337" xlink:href="#m54bcb102f9" y="51.174337"/>
    </g>
   </g>
   <g id="line2d_1"/>
   <g id="line2d_2">
    <defs>
     <path d="M 0 -5 
L -1.12257 -1.545085 
L -4.755283 -1.545085 
L -1.816356 0.59017 
L -2.938926 4.045085 
L -0 1.90983 
L 2.938926 4.045085 
L 1.816356 0.59017 
L 4.755283 -1.545085 
L 1.12257 -1.545085 
z
" id="m74c0e7db90" style="stroke:#ffa500;stroke-linejoin:bevel;"/>
    </defs>
    <g clip-path="url(#p94c4c6d05c)">
     <use style="fill:#ffa500;stroke:#ffa500;stroke-linejoin:bevel;" x="147.250051" xlink:href="#m74c0e7db90" y="28.124121"/>
     <use style="fill:#ffa500;stroke:#ffa500;stroke-linejoin:bevel;" x="125.903066" xlink:href="#m74c0e7db90" y="23.936145"/>
     <use style="fill:#ffa500;stroke:#ffa500;stroke-linejoin:bevel;" x="106.32868" xlink:href="#m74c0e7db90" y="29.863588"/>
     <use style="fill:#ffa500;stroke:#ffa500;stroke-linejoin:bevel;" x="245.413853" xlink:href="#m74c0e7db90" y="24.815237"/>
     <use style="fill:#ffa500;stroke:#ffa500;stroke-linejoin:bevel;" x="255.375339" xlink:href="#m74c0e7db90" y="25.178744"/>
     <use style="fill:#ffa500;stroke:#ffa500;stroke-linejoin:bevel;" x="92.097265" xlink:href="#m74c0e7db90" y="86.674337"/>
     <use style="fill:#ffa500;stroke:#ffa500;stroke-linejoin:bevel;" x="157.848236" xlink:href="#m74c0e7db90" y="25.948123"/>
     <use style="fill:#ffa500;stroke:#ffa500;stroke-linejoin:bevel;" x="104.478424" xlink:href="#m74c0e7db90" y="34.993222"/>
     <use style="fill:#ffa500;stroke:#ffa500;stroke-linejoin:bevel;" x="205.00552" xlink:href="#m74c0e7db90" y="24.956687"/>
     <use style="fill:#ffa500;stroke:#ffa500;stroke-linejoin:bevel;" x="61.09146" xlink:href="#m74c0e7db90" y="158.142736"/>
    </g>
   </g>
  </g>
 </g>
 <defs>
  <clipPath id="p94c4c6d05c">
   <rect height="271.8" width="271.8" x="0" y="0"/>
  </clipPath>
 </defs>
</svg>
