<?xml version="1.0" encoding="utf-8" standalone="no"?>
<!DOCTYPE svg PUBLIC "-//W3C//DTD SVG 1.1//EN"
  "http://www.w3.org/Graphics/SVG/1.1/DTD/svg11.dtd">
<!-- Created with matplotlib (https://matplotlib.org/) -->
<svg height="271.8pt" version="1.1" viewBox="0 0 271.8 271.8" width="271.8pt" xmlns="http://www.w3.org/2000/svg" xmlns:xlink="http://www.w3.org/1999/xlink">
 <metadata>
  <rdf:RDF xmlns:cc="http://creativecommons.org/ns#" xmlns:dc="http://purl.org/dc/elements/1.1/" xmlns:rdf="http://www.w3.org/1999/02/22-rdf-syntax-ns#">
   <cc:Work>
    <dc:type rdf:resource="http://purl.org/dc/dcmitype/StillImage"/>
    <dc:date>2020-09-05T10:50:49.270739</dc:date>
    <dc:format>image/svg+xml</dc:format>
    <dc:creator>
     <cc:Agent>
      <dc:title>Matplotlib v3.3.1, https://matplotlib.org/</dc:title>
     </cc:Agent>
    </dc:creator>
   </cc:Work>
  </rdf:RDF>
 </metadata>
 <defs>
  <style type="text/css">*{stroke-linecap:butt;stroke-linejoin:round;}</style>
 </defs>
 <g id="figure_1">
  <g id="patch_1">
   <path d="M 0 271.8 
L 271.8 271.8 
L 271.8 0 
L 0 0 
z
" style="fill:#ffffff;"/>
  </g>
  <g id="axes_1">
   <g id="PathCollection_1">
    <defs>
     <path d="M 0 3 
C 0.795609 3 1.55874 2.683901 2.12132 2.12132 
C 2.683901 1.55874 3 0.795609 3 0 
C 3 -0.795609 2.683901 -1.55874 2.12132 -2.12132 
C 1.55874 -2.683901 0.795609 -3 0 -3 
C -0.795609 -3 -1.55874 -2.683901 -2.12132 -2.12132 
C -2.683901 -1.55874 -3 -0.795609 -3 0 
C -3 0.795609 -2.683901 1.55874 -2.12132 2.12132 
C -1.55874 2.683901 -0.795609 3 0 3 
z
" id="m62711d69ee" style="stroke:#000000;"/>
    </defs>
    <g clip-path="url(#p50e7638166)">
     <use style="stroke:#000000;" x="245.320051" xlink:href="#m62711d69ee" y="226.773995"/>
     <use style="stroke:#000000;" x="197.592897" xlink:href="#m62711d69ee" y="64.385329"/>
     <use style="stroke:#000000;" x="52.825838" xlink:href="#m62711d69ee" y="113.175644"/>
     <use style="stroke:#000000;" x="187.174652" xlink:href="#m62711d69ee" y="150.440833"/>
     <use style="stroke:#000000;" x="128.991805" xlink:href="#m62711d69ee" y="59.279997"/>
     <use style="stroke:#000000;" x="218.230574" xlink:href="#m62711d69ee" y="103.621567"/>
     <use style="stroke:#000000;" x="243.3002" xlink:href="#m62711d69ee" y="230.082789"/>
    </g>
   </g>
   <g id="PathCollection_2">
    <defs>
     <path d="M 0 3 
C 0.795609 3 1.55874 2.683901 2.12132 2.12132 
C 2.683901 1.55874 3 0.795609 3 0 
C 3 -0.795609 2.683901 -1.55874 2.12132 -2.12132 
C 1.55874 -2.683901 0.795609 -3 0 -3 
C -0.795609 -3 -1.55874 -2.683901 -2.12132 -2.12132 
C -2.683901 -1.55874 -3 -0.795609 -3 0 
C -3 0.795609 -2.683901 1.55874 -2.12132 2.12132 
C -1.55874 2.683901 -0.795609 3 0 3 
z
" id="mea832a8a3a" style="stroke:#000000;stroke-opacity:0;"/>
    </defs>
    <g clip-path="url(#p50e7638166)">
     <use style="fill-opacity:0;stroke:#000000;stroke-opacity:0;" x="245.320051" xlink:href="#mea832a8a3a" y="226.773995"/>
     <use style="fill-opacity:0;stroke:#000000;stroke-opacity:0;" x="197.592897" xlink:href="#mea832a8a3a" y="64.385329"/>
     <use style="fill-opacity:0;stroke:#000000;stroke-opacity:0;" x="52.825838" xlink:href="#mea832a8a3a" y="113.175644"/>
     <use style="fill-opacity:0;stroke:#000000;stroke-opacity:0;" x="187.174652" xlink:href="#mea832a8a3a" y="150.440833"/>
     <use style="fill-opacity:0;stroke:#000000;stroke-opacity:0;" x="128.991805" xlink:href="#mea832a8a3a" y="59.279997"/>
     <use style="fill-opacity:0;stroke:#000000;stroke-opacity:0;" x="218.230574" xlink:href="#mea832a8a3a" y="103.621567"/>
     <use style="fill-opacity:0;stroke:#000000;stroke-opacity:0;" x="243.3002" xlink:href="#mea832a8a3a" y="230.082789"/>
    </g>
   </g>
   <g id="line2d_1"/>
   <g id="line2d_2">
    <defs>
     <path d="M 0 -5 
L -1.12257 -1.545085 
L -4.755283 -1.545085 
L -1.816356 0.59017 
L -2.938926 4.045085 
L -0 1.90983 
L 2.938926 4.045085 
L 1.816356 0.59017 
L 4.755283 -1.545085 
L 1.12257 -1.545085 
z
" id="mb1a1c300cd" style="stroke:#800080;stroke-linejoin:bevel;"/>
    </defs>
    <g clip-path="url(#p50e7638166)">
     <use style="fill:#800080;stroke:#800080;stroke-linejoin:bevel;" x="219.540161" xlink:href="#mb1a1c300cd" y="113.471567"/>
     <use style="fill:#800080;stroke:#800080;stroke-linejoin:bevel;" x="18.913226" xlink:href="#mb1a1c300cd" y="142.672318"/>
     <use style="fill:#800080;stroke:#800080;stroke-linejoin:bevel;" x="167.759225" xlink:href="#mb1a1c300cd" y="168.142435"/>
     <use style="fill:#800080;stroke:#800080;stroke-linejoin:bevel;" x="111.264102" xlink:href="#mb1a1c300cd" y="108.367564"/>
     <use style="fill:#800080;stroke:#800080;stroke-linejoin:bevel;" x="52.825838" xlink:href="#mb1a1c300cd" y="113.334572"/>
     <use style="fill:#800080;stroke:#800080;stroke-linejoin:bevel;" x="18.174368" xlink:href="#mb1a1c300cd" y="142.860205"/>
     <use style="fill:#800080;stroke:#800080;stroke-linejoin:bevel;" x="139.178423" xlink:href="#mb1a1c300cd" y="84.055385"/>
     <use style="fill:#800080;stroke:#800080;stroke-linejoin:bevel;" x="39.55006" xlink:href="#mb1a1c300cd" y="126.038416"/>
     <use style="fill:#800080;stroke:#800080;stroke-linejoin:bevel;" x="5.547479" xlink:href="#mb1a1c300cd" y="143.730278"/>
     <use style="fill:#800080;stroke:#800080;stroke-linejoin:bevel;" x="151.932721" xlink:href="#mb1a1c300cd" y="124.46713"/>
    </g>
   </g>
  </g>
 </g>
 <defs>
  <clipPath id="p50e7638166">
   <rect height="271.8" width="271.8" x="0" y="0"/>
  </clipPath>
 </defs>
</svg>
