<?xml version="1.0" encoding="utf-8" standalone="no"?>
<!DOCTYPE svg PUBLIC "-//W3C//DTD SVG 1.1//EN"
  "http://www.w3.org/Graphics/SVG/1.1/DTD/svg11.dtd">
<!-- Created with matplotlib (https://matplotlib.org/) -->
<svg height="271.8pt" version="1.1" viewBox="0 0 271.8 271.8" width="271.8pt" xmlns="http://www.w3.org/2000/svg" xmlns:xlink="http://www.w3.org/1999/xlink">
 <metadata>
  <rdf:RDF xmlns:cc="http://creativecommons.org/ns#" xmlns:dc="http://purl.org/dc/elements/1.1/" xmlns:rdf="http://www.w3.org/1999/02/22-rdf-syntax-ns#">
   <cc:Work>
    <dc:type rdf:resource="http://purl.org/dc/dcmitype/StillImage"/>
    <dc:date>2020-09-05T10:50:49.597912</dc:date>
    <dc:format>image/svg+xml</dc:format>
    <dc:creator>
     <cc:Agent>
      <dc:title>Matplotlib v3.3.1, https://matplotlib.org/</dc:title>
     </cc:Agent>
    </dc:creator>
   </cc:Work>
  </rdf:RDF>
 </metadata>
 <defs>
  <style type="text/css">*{stroke-linecap:butt;stroke-linejoin:round;}</style>
 </defs>
 <g id="figure_1">
  <g id="patch_1">
   <path d="M 0 271.8 
L 271.8 271.8 
L 271.8 0 
L 0 0 
z
" style="fill:#ffffff;"/>
  </g>
  <g id="axes_1">
   <g id="PathCollection_1">
    <defs>
     <path d="M 0 3 
C 0.795609 3 1.55874 2.683901 2.12132 2.12132 
C 2.683901 1.55874 3 0.795609 3 0 
C 3 -0.795609 2.683901 -1.55874 2.12132 -2.12132 
C 1.55874 -2.683901 0.795609 -3 0 -3 
C -0.795609 -3 -1.55874 -2.683901 -2.12132 -2.12132 
C -2.683901 -1.55874 -3 -0.795609 -3 0 
C -3 0.795609 -2.683901 1.55874 -2.12132 2.12132 
C -1.55874 2.683901 -0.795609 3 0 3 
z
" id="m8e54f1dce3" style="stroke:#000000;"/>
    </defs>
    <g clip-path="url(#p11b5c2d811)">
     <use style="stroke:#000000;" x="236.22275" xlink:href="#m8e54f1dce3" y="189.220597"/>
     <use style="stroke:#000000;" x="64.539502" xlink:href="#m8e54f1dce3" y="233.133518"/>
     <use style="stroke:#000000;" x="240.374917" xlink:href="#m8e54f1dce3" y="167.885841"/>
     <use style="stroke:#000000;" x="33.850831" xlink:href="#m8e54f1dce3" y="178.941355"/>
     <use style="stroke:#000000;" x="141.082716" xlink:href="#m8e54f1dce3" y="205.650454"/>
     <use style="stroke:#000000;" x="101.951229" xlink:href="#m8e54f1dce3" y="51.057325"/>
     <use style="stroke:#000000;" x="121.952645" xlink:href="#m8e54f1dce3" y="148.964231"/>
    </g>
   </g>
   <g id="PathCollection_2">
    <defs>
     <path d="M 0 3 
C 0.795609 3 1.55874 2.683901 2.12132 2.12132 
C 2.683901 1.55874 3 0.795609 3 0 
C 3 -0.795609 2.683901 -1.55874 2.12132 -2.12132 
C 1.55874 -2.683901 0.795609 -3 0 -3 
C -0.795609 -3 -1.55874 -2.683901 -2.12132 -2.12132 
C -2.683901 -1.55874 -3 -0.795609 -3 0 
C -3 0.795609 -2.683901 1.55874 -2.12132 2.12132 
C -1.55874 2.683901 -0.795609 3 0 3 
z
" id="m39bc035b05" style="stroke:#000000;stroke-opacity:0;"/>
    </defs>
    <g clip-path="url(#p11b5c2d811)">
     <use style="fill-opacity:0;stroke:#000000;stroke-opacity:0;" x="236.22275" xlink:href="#m39bc035b05" y="189.220597"/>
     <use style="fill-opacity:0;stroke:#000000;stroke-opacity:0;" x="64.539502" xlink:href="#m39bc035b05" y="233.133518"/>
     <use style="fill-opacity:0;stroke:#000000;stroke-opacity:0;" x="240.374917" xlink:href="#m39bc035b05" y="167.885841"/>
     <use style="fill-opacity:0;stroke:#000000;stroke-opacity:0;" x="33.850831" xlink:href="#m39bc035b05" y="178.941355"/>
     <use style="fill-opacity:0;stroke:#000000;stroke-opacity:0;" x="141.082716" xlink:href="#m39bc035b05" y="205.650454"/>
     <use style="fill-opacity:0;stroke:#000000;stroke-opacity:0;" x="101.951229" xlink:href="#m39bc035b05" y="51.057325"/>
     <use style="fill-opacity:0;stroke:#000000;stroke-opacity:0;" x="121.952645" xlink:href="#m39bc035b05" y="148.964231"/>
    </g>
   </g>
   <g id="LineCollection_1">
    <path clip-path="url(#p11b5c2d811)" d="M 101.951229 51.835154 
L 101.951229 50.447772 
" style="fill:none;stroke:#1f77b4;stroke-opacity:0.7;stroke-width:1.5;"/>
    <path clip-path="url(#p11b5c2d811)" d="M 267.416085 214.515955 
L 267.416085 84.91929 
" style="fill:none;stroke:#1f77b4;stroke-opacity:0.7;stroke-width:1.5;"/>
    <path clip-path="url(#p11b5c2d811)" d="M 185.697049 239.435281 
L 185.697049 101.004456 
" style="fill:none;stroke:#1f77b4;stroke-opacity:0.7;stroke-width:1.5;"/>
    <path clip-path="url(#p11b5c2d811)" d="M 130.047311 203.074119 
L 130.047311 165.719918 
" style="fill:none;stroke:#1f77b4;stroke-opacity:0.7;stroke-width:1.5;"/>
    <path clip-path="url(#p11b5c2d811)" d="M 33.850831 179.688718 
L 33.850831 178.301355 
" style="fill:none;stroke:#1f77b4;stroke-opacity:0.7;stroke-width:1.5;"/>
    <path clip-path="url(#p11b5c2d811)" d="M 114.54971 125.039324 
L 114.54971 87.81933 
" style="fill:none;stroke:#1f77b4;stroke-opacity:0.7;stroke-width:1.5;"/>
    <path clip-path="url(#p11b5c2d811)" d="M 75.439883 233.968614 
L 75.439883 145.687792 
" style="fill:none;stroke:#1f77b4;stroke-opacity:0.7;stroke-width:1.5;"/>
    <path clip-path="url(#p11b5c2d811)" d="M 224.112213 254.044466 
L 224.112213 180.763514 
" style="fill:none;stroke:#1f77b4;stroke-opacity:0.7;stroke-width:1.5;"/>
    <path clip-path="url(#p11b5c2d811)" d="M 4.449123 237.541403 
L 4.449123 102.519334 
" style="fill:none;stroke:#1f77b4;stroke-opacity:0.7;stroke-width:1.5;"/>
    <path clip-path="url(#p11b5c2d811)" d="M 255.579547 174.941852 
L 255.579547 85.537807 
" style="fill:none;stroke:#1f77b4;stroke-opacity:0.7;stroke-width:1.5;"/>
   </g>
   <g id="line2d_1"/>
   <g id="line2d_2">
    <defs>
     <path d="M 0 -5 
L -1.12257 -1.545085 
L -4.755283 -1.545085 
L -1.816356 0.59017 
L -2.938926 4.045085 
L -0 1.90983 
L 2.938926 4.045085 
L 1.816356 0.59017 
L 4.755283 -1.545085 
L 1.12257 -1.545085 
z
" id="m10392ce9c5" style="stroke:#0000ff;stroke-linejoin:bevel;"/>
    </defs>
    <g clip-path="url(#p11b5c2d811)">
     <use style="fill:#0000ff;stroke:#0000ff;stroke-linejoin:bevel;" x="101.951229" xlink:href="#m10392ce9c5" y="51.141463"/>
     <use style="fill:#0000ff;stroke:#0000ff;stroke-linejoin:bevel;" x="267.416085" xlink:href="#m10392ce9c5" y="149.717623"/>
     <use style="fill:#0000ff;stroke:#0000ff;stroke-linejoin:bevel;" x="185.697049" xlink:href="#m10392ce9c5" y="170.219868"/>
     <use style="fill:#0000ff;stroke:#0000ff;stroke-linejoin:bevel;" x="130.047311" xlink:href="#m10392ce9c5" y="184.397018"/>
     <use style="fill:#0000ff;stroke:#0000ff;stroke-linejoin:bevel;" x="33.850831" xlink:href="#m10392ce9c5" y="178.995037"/>
     <use style="fill:#0000ff;stroke:#0000ff;stroke-linejoin:bevel;" x="114.54971" xlink:href="#m10392ce9c5" y="106.429327"/>
     <use style="fill:#0000ff;stroke:#0000ff;stroke-linejoin:bevel;" x="75.439883" xlink:href="#m10392ce9c5" y="189.828203"/>
     <use style="fill:#0000ff;stroke:#0000ff;stroke-linejoin:bevel;" x="224.112213" xlink:href="#m10392ce9c5" y="217.403992"/>
     <use style="fill:#0000ff;stroke:#0000ff;stroke-linejoin:bevel;" x="4.449123" xlink:href="#m10392ce9c5" y="170.030369"/>
     <use style="fill:#0000ff;stroke:#0000ff;stroke-linejoin:bevel;" x="255.579547" xlink:href="#m10392ce9c5" y="130.239831"/>
    </g>
   </g>
   <g id="line2d_3">
    <defs>
     <path d="M 5 0 
L -5 -0 
" id="m316373e3e4" style="stroke:#1f77b4;stroke-opacity:0.7;"/>
    </defs>
    <g clip-path="url(#p11b5c2d811)">
     <use style="fill:#1f77b4;fill-opacity:0.7;stroke:#1f77b4;stroke-opacity:0.7;" x="101.951229" xlink:href="#m316373e3e4" y="51.835154"/>
     <use style="fill:#1f77b4;fill-opacity:0.7;stroke:#1f77b4;stroke-opacity:0.7;" x="267.416085" xlink:href="#m316373e3e4" y="214.515955"/>
     <use style="fill:#1f77b4;fill-opacity:0.7;stroke:#1f77b4;stroke-opacity:0.7;" x="185.697049" xlink:href="#m316373e3e4" y="239.435281"/>
     <use style="fill:#1f77b4;fill-opacity:0.7;stroke:#1f77b4;stroke-opacity:0.7;" x="130.047311" xlink:href="#m316373e3e4" y="203.074119"/>
     <use style="fill:#1f77b4;fill-opacity:0.7;stroke:#1f77b4;stroke-opacity:0.7;" x="33.850831" xlink:href="#m316373e3e4" y="179.688718"/>
     <use style="fill:#1f77b4;fill-opacity:0.7;stroke:#1f77b4;stroke-opacity:0.7;" x="114.54971" xlink:href="#m316373e3e4" y="125.039324"/>
     <use style="fill:#1f77b4;fill-opacity:0.7;stroke:#1f77b4;stroke-opacity:0.7;" x="75.439883" xlink:href="#m316373e3e4" y="233.968614"/>
     <use style="fill:#1f77b4;fill-opacity:0.7;stroke:#1f77b4;stroke-opacity:0.7;" x="224.112213" xlink:href="#m316373e3e4" y="254.044466"/>
     <use style="fill:#1f77b4;fill-opacity:0.7;stroke:#1f77b4;stroke-opacity:0.7;" x="4.449123" xlink:href="#m316373e3e4" y="237.541403"/>
     <use style="fill:#1f77b4;fill-opacity:0.7;stroke:#1f77b4;stroke-opacity:0.7;" x="255.579547" xlink:href="#m316373e3e4" y="174.941852"/>
    </g>
   </g>
   <g id="line2d_4">
    <g clip-path="url(#p11b5c2d811)">
     <use style="fill:#1f77b4;fill-opacity:0.7;stroke:#1f77b4;stroke-opacity:0.7;" x="101.951229" xlink:href="#m316373e3e4" y="50.447772"/>
     <use style="fill:#1f77b4;fill-opacity:0.7;stroke:#1f77b4;stroke-opacity:0.7;" x="267.416085" xlink:href="#m316373e3e4" y="84.91929"/>
     <use style="fill:#1f77b4;fill-opacity:0.7;stroke:#1f77b4;stroke-opacity:0.7;" x="185.697049" xlink:href="#m316373e3e4" y="101.004456"/>
     <use style="fill:#1f77b4;fill-opacity:0.7;stroke:#1f77b4;stroke-opacity:0.7;" x="130.047311" xlink:href="#m316373e3e4" y="165.719918"/>
     <use style="fill:#1f77b4;fill-opacity:0.7;stroke:#1f77b4;stroke-opacity:0.7;" x="33.850831" xlink:href="#m316373e3e4" y="178.301355"/>
     <use style="fill:#1f77b4;fill-opacity:0.7;stroke:#1f77b4;stroke-opacity:0.7;" x="114.54971" xlink:href="#m316373e3e4" y="87.81933"/>
     <use style="fill:#1f77b4;fill-opacity:0.7;stroke:#1f77b4;stroke-opacity:0.7;" x="75.439883" xlink:href="#m316373e3e4" y="145.687792"/>
     <use style="fill:#1f77b4;fill-opacity:0.7;stroke:#1f77b4;stroke-opacity:0.7;" x="224.112213" xlink:href="#m316373e3e4" y="180.763514"/>
     <use style="fill:#1f77b4;fill-opacity:0.7;stroke:#1f77b4;stroke-opacity:0.7;" x="4.449123" xlink:href="#m316373e3e4" y="102.519334"/>
     <use style="fill:#1f77b4;fill-opacity:0.7;stroke:#1f77b4;stroke-opacity:0.7;" x="255.579547" xlink:href="#m316373e3e4" y="85.537807"/>
    </g>
   </g>
  </g>
 </g>
 <defs>
  <clipPath id="p11b5c2d811">
   <rect height="271.8" width="271.8" x="0" y="0"/>
  </clipPath>
 </defs>
</svg>
