<?xml version="1.0" encoding="utf-8" standalone="no"?>
<!DOCTYPE svg PUBLIC "-//W3C//DTD SVG 1.1//EN"
  "http://www.w3.org/Graphics/SVG/1.1/DTD/svg11.dtd">
<!-- Created with matplotlib (https://matplotlib.org/) -->
<svg height="271.8pt" version="1.1" viewBox="0 0 271.8 271.8" width="271.8pt" xmlns="http://www.w3.org/2000/svg" xmlns:xlink="http://www.w3.org/1999/xlink">
 <metadata>
  <rdf:RDF xmlns:cc="http://creativecommons.org/ns#" xmlns:dc="http://purl.org/dc/elements/1.1/" xmlns:rdf="http://www.w3.org/1999/02/22-rdf-syntax-ns#">
   <cc:Work>
    <dc:type rdf:resource="http://purl.org/dc/dcmitype/StillImage"/>
    <dc:date>2020-09-05T10:50:49.521351</dc:date>
    <dc:format>image/svg+xml</dc:format>
    <dc:creator>
     <cc:Agent>
      <dc:title>Matplotlib v3.3.1, https://matplotlib.org/</dc:title>
     </cc:Agent>
    </dc:creator>
   </cc:Work>
  </rdf:RDF>
 </metadata>
 <defs>
  <style type="text/css">*{stroke-linecap:butt;stroke-linejoin:round;}</style>
 </defs>
 <g id="figure_1">
  <g id="patch_1">
   <path d="M 0 271.8 
L 271.8 271.8 
L 271.8 0 
L 0 0 
z
" style="fill:#ffffff;"/>
  </g>
  <g id="axes_1">
   <g id="PolyCollection_1">
    <path clip-path="url(#p5dbb6867e3)" d="M 0 93.901778 
L 0 225.44467 
L 2.140156 225.320351 
L 4.280313 225.13928 
L 6.420469 225.064498 
L 8.560626 225.181842 
L 10.70079 224.762588 
L 12.840947 223.060687 
L 14.981103 221.017752 
L 17.12126 218.536263 
L 19.261416 215.059906 
L 21.401573 210.501771 
L 23.541729 205.629636 
L 25.681894 200.492838 
L 27.82205 191.088964 
L 29.962207 182.555279 
L 32.102363 175.071181 
L 34.24252 170.496938 
L 36.382676 182.415974 
L 38.522832 194.17736 
L 40.662989 205.973543 
L 42.803145 218.328652 
L 44.94331 226.996558 
L 47.083466 235.208197 
L 49.223623 242.479872 
L 51.363779 247.446675 
L 53.503936 250.370142 
L 55.644092 252.34256 
L 57.784249 248.8251 
L 59.924413 241.584892 
L 62.06457 232.672404 
L 64.204726 222.542407 
L 66.344883 226.137102 
L 68.485039 229.127455 
L 70.625196 230.819544 
L 72.765352 229.592157 
L 74.905508 223.706171 
L 77.045665 214.289109 
L 79.185821 204.962795 
L 81.325986 193.184453 
L 83.466142 179.892055 
L 85.606299 165.812782 
L 87.746455 149.469174 
L 89.886612 129.979476 
L 92.026776 111.876229 
L 94.166933 95.298855 
L 96.307089 76.451635 
L 98.447246 60.060234 
L 100.587402 49.859279 
L 102.727559 48.031832 
L 104.867715 60.977958 
L 107.007872 73.933127 
L 109.148028 87.068109 
L 111.288185 100.082114 
L 113.428341 110.82261 
L 115.568506 121.091164 
L 117.708662 129.037561 
L 119.848818 134.953124 
L 121.988975 140.131099 
L 124.129131 156.207214 
L 126.269288 171.734791 
L 128.409452 184.351752 
L 130.549609 193.907878 
L 132.689765 200.573833 
L 134.829922 203.882663 
L 136.970078 204.184012 
L 139.110235 199.536536 
L 141.250391 195.301829 
L 143.390548 203.793186 
L 145.530704 209.898853 
L 147.670861 216.954832 
L 149.811017 224.409618 
L 151.951173 226.631298 
L 154.09133 228.307522 
L 156.231486 229.539686 
L 158.371659 230.220165 
L 160.511815 231.430459 
L 162.651972 231.677421 
L 164.792128 231.241467 
L 166.932285 230.17838 
L 169.072441 228.771935 
L 171.212598 227.598687 
L 173.352754 226.720126 
L 175.492911 226.084984 
L 177.633067 225.649262 
L 179.773224 225.508405 
L 181.91338 225.803164 
L 184.053553 226.4543 
L 186.193709 227.07939 
L 188.333866 227.246823 
L 190.474022 226.912469 
L 192.614179 226.481606 
L 194.754335 226.433544 
L 196.894492 227.085603 
L 199.034648 228.439938 
L 201.174804 230.214168 
L 203.314961 232.084778 
L 205.455117 233.90626 
L 207.595274 235.709512 
L 209.73543 237.780217 
L 211.875587 240.83845 
L 214.015743 243.171582 
L 216.1559 244.641369 
L 218.296056 245.212175 
L 220.436213 244.957581 
L 222.576369 243.986192 
L 224.716525 238.781406 
L 226.856682 231.708471 
L 228.996838 221.543756 
L 231.137011 209.302236 
L 233.277168 195.871822 
L 235.417324 183.251356 
L 237.55748 172.777454 
L 239.697637 161.84053 
L 241.837793 152.071485 
L 243.97795 146.55581 
L 246.118106 144.360189 
L 248.258263 144.53487 
L 250.398435 146.788879 
L 252.538592 154.303806 
L 254.678748 161.405197 
L 256.818905 169.043884 
L 258.959061 176.582435 
L 261.099218 183.864039 
L 263.239374 190.783193 
L 265.379531 197.220312 
L 267.519687 203.07288 
L 269.659844 207.582905 
L 271.8 211.687963 
L 271.8 82.140589 
L 271.8 82.140589 
L 269.659844 79.764398 
L 267.519687 77.312607 
L 265.379531 74.539144 
L 263.239374 72.767768 
L 261.099218 72.196392 
L 258.959061 73.28717 
L 256.818905 76.08316 
L 254.678748 79.222043 
L 252.538592 84.992489 
L 250.398435 95.856959 
L 248.258263 106.657157 
L 246.118106 119.996498 
L 243.97795 134.302216 
L 241.837793 148.331193 
L 239.697637 160.375043 
L 237.55748 171.148852 
L 235.417324 181.152941 
L 233.277168 186.318706 
L 231.137011 187.494736 
L 228.996838 186.239513 
L 226.856682 181.182892 
L 224.716525 172.514502 
L 222.576369 163.452609 
L 220.436213 153.679586 
L 218.296056 143.161373 
L 216.1559 133.420566 
L 214.015743 124.98836 
L 211.875587 117.903057 
L 209.73543 112.006737 
L 207.595274 108.166924 
L 205.455117 104.864355 
L 203.314961 101.632924 
L 201.174804 98.716547 
L 199.034648 96.555363 
L 196.894492 95.138404 
L 194.754335 94.200024 
L 192.614179 93.557005 
L 190.474022 93.069334 
L 188.333866 92.772378 
L 186.193709 92.72669 
L 184.053553 92.910627 
L 181.91338 93.181968 
L 179.773224 93.409557 
L 177.633067 93.643143 
L 175.492911 94.059615 
L 173.352754 94.8469 
L 171.212598 96.137231 
L 169.072441 98.028922 
L 166.932285 100.79159 
L 164.792128 103.989574 
L 162.651972 107.758264 
L 160.511815 112.304226 
L 158.371659 117.645332 
L 156.231486 125.457814 
L 154.09133 134.218457 
L 151.951173 143.020154 
L 149.811017 152.074251 
L 147.670861 164.710452 
L 145.530704 175.171148 
L 143.390548 185.000718 
L 141.250391 193.618735 
L 139.110235 186.48877 
L 136.970078 178.10915 
L 134.829922 170.71701 
L 132.689765 163.341935 
L 130.549609 156.710006 
L 128.409452 151.470994 
L 126.269288 146.241973 
L 124.129131 143.40813 
L 121.988975 138.786046 
L 119.848818 122.318785 
L 117.708662 103.346815 
L 115.568506 87.271571 
L 113.428341 72.411078 
L 111.288185 58.042273 
L 109.148028 48.411691 
L 107.007872 41.549586 
L 104.867715 39.266608 
L 102.727559 42.541603 
L 100.587402 37.712355 
L 98.447246 30.510523 
L 96.307089 26.237763 
L 94.166933 25.84256 
L 92.026776 31.652409 
L 89.886612 39.462069 
L 87.746455 49.639134 
L 85.606299 60.667069 
L 83.466142 73.165473 
L 81.325986 87.929193 
L 79.185821 104.513108 
L 77.045665 121.661004 
L 74.905508 140.68513 
L 72.765352 157.472773 
L 70.625196 175.13625 
L 68.485039 194.706751 
L 66.344883 208.845342 
L 64.204726 219.711728 
L 62.06457 211.075564 
L 59.924413 202.207571 
L 57.784249 191.278657 
L 55.644092 179.249774 
L 53.503936 170.512224 
L 51.363779 162.236775 
L 49.223623 155.359734 
L 47.083466 150.916153 
L 44.94331 148.084096 
L 42.803145 146.326651 
L 40.662989 149.209656 
L 38.522832 153.717342 
L 36.382676 159.426946 
L 34.24252 167.183745 
L 32.102363 158.958753 
L 29.962207 148.017484 
L 27.82205 137.588765 
L 25.681894 126.654532 
L 23.541729 120.639621 
L 21.401573 114.276342 
L 19.261416 107.878118 
L 17.12126 102.800841 
L 14.981103 99.307493 
L 12.840947 97.181563 
L 10.70079 96.145012 
L 8.560626 95.225259 
L 6.420469 94.555311 
L 4.280313 94.20192 
L 2.140156 94.053567 
L 0 93.901778 
z
" style="fill:#1f77b4;fill-opacity:0.3;stroke:#1f77b4;stroke-opacity:0.3;"/>
   </g>
   <g id="PathCollection_1">
    <defs>
     <path d="M 0 3 
C 0.795609 3 1.55874 2.683901 2.12132 2.12132 
C 2.683901 1.55874 3 0.795609 3 0 
C 3 -0.795609 2.683901 -1.55874 2.12132 -2.12132 
C 1.55874 -2.683901 0.795609 -3 0 -3 
C -0.795609 -3 -1.55874 -2.683901 -2.12132 -2.12132 
C -2.683901 -1.55874 -3 -0.795609 -3 0 
C -3 0.795609 -2.683901 1.55874 -2.12132 2.12132 
C -1.55874 2.683901 -0.795609 3 0 3 
z
" id="md3678794a9" style="stroke:#000000;"/>
    </defs>
    <g clip-path="url(#p5dbb6867e3)">
     <use style="stroke:#000000;" x="236.22275" xlink:href="#md3678794a9" y="178.278853"/>
     <use style="stroke:#000000;" x="64.539502" xlink:href="#md3678794a9" y="220.852956"/>
     <use style="stroke:#000000;" x="240.374917" xlink:href="#md3678794a9" y="157.594551"/>
     <use style="stroke:#000000;" x="33.850831" xlink:href="#md3678794a9" y="168.313005"/>
     <use style="stroke:#000000;" x="141.082716" xlink:href="#md3678794a9" y="194.207796"/>
     <use style="stroke:#000000;" x="101.951229" xlink:href="#md3678794a9" y="44.327907"/>
     <use style="stroke:#000000;" x="121.952645" xlink:href="#md3678794a9" y="139.249824"/>
    </g>
   </g>
   <g id="line2d_1">
    <path clip-path="url(#p5dbb6867e3)" d="M 0 159.673224 
L 6.420469 159.809904 
L 8.560626 160.203549 
L 10.70079 160.453799 
L 12.840947 160.121126 
L 14.981103 160.162624 
L 17.12126 160.668552 
L 19.261416 161.469012 
L 21.401573 162.389057 
L 23.541729 163.134629 
L 25.681894 163.573684 
L 27.82205 164.338863 
L 29.962207 165.286381 
L 34.24252 168.840342 
L 36.382676 170.92146 
L 38.522832 173.947351 
L 40.662989 177.591598 
L 42.803145 182.327652 
L 44.94331 187.540328 
L 47.083466 193.062175 
L 53.503936 210.441183 
L 55.644092 215.796167 
L 57.784249 220.051879 
L 59.924413 221.896229 
L 62.06457 221.873982 
L 64.204726 221.127067 
L 66.344883 217.491222 
L 68.485039 211.917103 
L 70.625196 202.977899 
L 72.765352 193.532465 
L 74.905508 182.195649 
L 77.045665 167.975056 
L 79.185821 154.737951 
L 83.466142 126.528766 
L 87.746455 99.554154 
L 89.886612 84.720771 
L 92.026776 71.764319 
L 94.166933 60.570705 
L 96.307089 51.344699 
L 98.447246 45.285379 
L 100.587402 43.785817 
L 102.727559 45.286718 
L 104.867715 50.122283 
L 107.007872 57.741357 
L 109.148028 67.7399 
L 111.288185 79.062193 
L 119.848818 128.635954 
L 124.129131 149.807672 
L 128.409452 167.911373 
L 130.549609 175.308943 
L 132.689765 181.957884 
L 134.829922 187.299836 
L 136.970078 191.146581 
L 139.110235 193.012654 
L 141.250391 194.460282 
L 143.390548 194.396952 
L 145.530704 192.535 
L 147.670861 190.832642 
L 149.811017 188.241936 
L 154.09133 181.262989 
L 158.371659 173.93275 
L 164.792128 167.61552 
L 169.072441 163.400427 
L 171.212598 161.867961 
L 173.352754 160.783512 
L 175.492911 160.072298 
L 177.633067 159.646204 
L 179.773224 159.458982 
L 181.91338 159.492564 
L 188.333866 160.009599 
L 192.614179 160.019303 
L 194.754335 160.316785 
L 196.894492 161.112001 
L 199.034648 162.49765 
L 201.174804 164.46536 
L 205.455117 169.38531 
L 207.595274 171.93822 
L 209.73543 174.893479 
L 214.015743 184.07997 
L 218.296056 194.186772 
L 220.436213 199.318584 
L 222.576369 203.719398 
L 224.716525 205.647955 
L 226.856682 206.445681 
L 228.996838 203.891634 
L 231.137011 198.398487 
L 233.277168 191.095265 
L 235.417324 182.202148 
L 237.55748 171.963153 
L 241.837793 150.201339 
L 243.97795 140.429013 
L 246.118106 132.178342 
L 248.258263 125.596012 
L 250.398435 121.322918 
L 252.538592 119.648149 
L 254.678748 120.31362 
L 258.959061 124.934805 
L 261.099218 128.030216 
L 263.239374 131.775481 
L 267.519687 140.192745 
L 269.659844 143.673653 
L 271.8 146.914276 
L 271.8 146.914276 
" style="fill:none;stroke:#0000ff;stroke-linecap:round;stroke-width:1.5;"/>
   </g>
  </g>
 </g>
 <defs>
  <clipPath id="p5dbb6867e3">
   <rect height="271.8" width="271.8" x="0" y="0"/>
  </clipPath>
 </defs>
</svg>
