<?xml version="1.0" encoding="utf-8" standalone="no"?>
<!DOCTYPE svg PUBLIC "-//W3C//DTD SVG 1.1//EN"
  "http://www.w3.org/Graphics/SVG/1.1/DTD/svg11.dtd">
<!-- Created with matplotlib (https://matplotlib.org/) -->
<svg height="271.8pt" version="1.1" viewBox="0 0 271.8 271.8" width="271.8pt" xmlns="http://www.w3.org/2000/svg" xmlns:xlink="http://www.w3.org/1999/xlink">
 <metadata>
  <rdf:RDF xmlns:cc="http://creativecommons.org/ns#" xmlns:dc="http://purl.org/dc/elements/1.1/" xmlns:rdf="http://www.w3.org/1999/02/22-rdf-syntax-ns#">
   <cc:Work>
    <dc:type rdf:resource="http://purl.org/dc/dcmitype/StillImage"/>
    <dc:date>2020-09-05T10:50:47.989314</dc:date>
    <dc:format>image/svg+xml</dc:format>
    <dc:creator>
     <cc:Agent>
      <dc:title>Matplotlib v3.3.1, https://matplotlib.org/</dc:title>
     </cc:Agent>
    </dc:creator>
   </cc:Work>
  </rdf:RDF>
 </metadata>
 <defs>
  <style type="text/css">*{stroke-linecap:butt;stroke-linejoin:round;}</style>
 </defs>
 <g id="figure_1">
  <g id="patch_1">
   <path d="M 0 271.8 
L 271.8 271.8 
L 271.8 0 
L 0 0 
z
" style="fill:#ffffff;"/>
  </g>
  <g id="axes_1">
   <g id="PolyCollection_1">
    <path clip-path="url(#pa8efe58efa)" d="M 0 143.395569 
L 0 233.802506 
L 2.140156 238.837509 
L 4.280313 242.777516 
L 6.420469 245.463998 
L 8.560626 246.017016 
L 10.70079 242.13398 
L 12.840947 234.268375 
L 14.981103 224.287817 
L 17.12126 223.892604 
L 19.261416 219.503247 
L 21.401573 212.456221 
L 23.541729 201.300638 
L 25.681894 187.415319 
L 27.82205 173.545363 
L 29.962207 157.819512 
L 32.102363 140.909716 
L 34.24252 127.545616 
L 36.382676 127.376943 
L 38.522832 128.424075 
L 40.662989 132.127678 
L 42.803145 137.936434 
L 44.94331 143.99289 
L 47.083466 148.875359 
L 49.223623 154.609762 
L 51.363779 161.921207 
L 53.503936 165.487628 
L 55.644092 170.704793 
L 57.784249 173.304577 
L 59.924413 175.180318 
L 62.06457 174.414563 
L 64.204726 171.716471 
L 66.344883 169.44324 
L 68.485039 162.611861 
L 70.625196 150.673684 
L 72.765352 134.165478 
L 74.905508 114.641705 
L 77.045665 95.1184 
L 79.185821 76.054434 
L 81.325986 58.496198 
L 83.466142 43.971464 
L 85.606299 33.539348 
L 87.746455 27.257509 
L 89.886612 24.429382 
L 92.026776 23.946589 
L 94.166933 24.539131 
L 96.307089 25.714254 
L 98.447246 26.550404 
L 100.587402 27.098711 
L 102.727559 27.417671 
L 104.867715 28.087113 
L 107.007872 30.021322 
L 109.148028 34.75587 
L 111.288185 42.013884 
L 113.428341 51.633254 
L 115.568506 63.692735 
L 117.708662 76.810006 
L 119.848818 90.58287 
L 121.988975 104.963591 
L 124.129131 118.601388 
L 126.269288 130.834241 
L 128.409452 140.206775 
L 130.549609 146.952045 
L 132.689765 151.549502 
L 134.829922 154.168179 
L 136.970078 154.710732 
L 139.110235 152.777304 
L 141.250391 149.125184 
L 143.390548 144.929799 
L 145.530704 140.05078 
L 147.670861 133.894444 
L 149.811017 127.235718 
L 151.951173 119.884525 
L 154.09133 112.492895 
L 156.231486 106.862507 
L 158.371659 107.627119 
L 160.511815 112.78407 
L 162.651972 120.435395 
L 164.792128 129.772815 
L 166.932285 139.121386 
L 169.072441 146.713274 
L 171.212598 152.236805 
L 173.352754 155.6297 
L 175.492911 165.747862 
L 177.633067 175.466978 
L 179.773224 183.051854 
L 181.91338 190.605019 
L 184.053553 193.233367 
L 186.193709 193.47847 
L 188.333866 193.014143 
L 190.474022 191.671117 
L 192.614179 189.286913 
L 194.754335 186.676207 
L 196.894492 184.885968 
L 199.034648 184.236115 
L 201.174804 184.462452 
L 203.314961 184.426684 
L 205.455117 184.359797 
L 207.595274 184.656849 
L 209.73543 185.758592 
L 211.875587 187.305922 
L 214.015743 188.797666 
L 216.1559 189.954963 
L 218.296056 190.559687 
L 220.436213 190.496419 
L 222.576369 189.736719 
L 224.716525 185.51262 
L 226.856682 179.723985 
L 228.996838 171.482116 
L 231.137011 161.49142 
L 233.277168 150.47079 
L 235.417324 140.086318 
L 237.55748 131.544734 
L 239.697637 122.62607 
L 241.837793 114.703065 
L 243.97795 110.274773 
L 246.118106 108.572744 
L 248.258263 108.767661 
L 250.398435 110.616527 
L 252.538592 116.724018 
L 254.678748 122.50794 
L 256.818905 128.669562 
L 258.959061 134.714893 
L 261.099218 140.608415 
L 263.239374 146.212878 
L 265.379531 151.432303 
L 267.519687 156.184661 
L 269.659844 159.869447 
L 271.8 163.200396 
L 271.8 57.618656 
L 271.8 57.618656 
L 269.659844 55.699261 
L 267.519687 53.707918 
L 265.379531 51.487128 
L 263.239374 50.094388 
L 261.099218 49.688555 
L 258.959061 50.63736 
L 256.818905 53.018841 
L 254.678748 55.620571 
L 252.538592 60.371711 
L 250.398435 69.211295 
L 248.258263 77.968616 
L 246.118106 88.767273 
L 243.97795 100.33851 
L 241.837793 111.680056 
L 239.697637 121.443092 
L 237.55748 130.201493 
L 235.417324 138.42351 
L 233.277168 142.692845 
L 231.137011 143.690967 
L 228.996838 142.698026 
L 226.856682 138.5149 
L 224.716525 131.364032 
L 222.576369 123.915818 
L 220.436213 115.77361 
L 218.296056 106.976372 
L 216.1559 98.807146 
L 214.015743 91.770766 
L 211.875587 86.170298 
L 209.73543 82.255729 
L 207.595274 79.874281 
L 205.455117 78.554293 
L 203.314961 77.914189 
L 201.174804 78.366919 
L 199.034648 80.019851 
L 196.894492 83.351097 
L 194.754335 88.00237 
L 192.614179 93.995238 
L 190.474022 101.494962 
L 188.333866 110.234549 
L 186.193709 119.389644 
L 184.053553 128.070764 
L 181.91338 137.134673 
L 179.773224 146.699009 
L 177.633067 152.373783 
L 175.492911 155.456771 
L 173.352754 154.532424 
L 171.212598 143.179637 
L 169.072441 131.46746 
L 166.932285 120.790962 
L 164.792128 111.783954 
L 162.651972 105.962653 
L 160.511815 103.230258 
L 158.371659 103.454756 
L 156.231486 105.194445 
L 154.09133 106.50969 
L 151.951173 111.27561 
L 149.811017 118.271638 
L 147.670861 126.245635 
L 145.530704 134.883101 
L 143.390548 142.296477 
L 141.250391 148.029294 
L 139.110235 151.425102 
L 136.970078 152.982396 
L 134.829922 153.066926 
L 132.689765 150.453611 
L 130.549609 145.443181 
L 128.409452 137.885786 
L 126.269288 128.515486 
L 124.129131 117.084197 
L 121.988975 103.867708 
L 119.848818 88.745933 
L 117.708662 73.295579 
L 115.568506 59.261123 
L 113.428341 47.431461 
L 111.288185 38.424418 
L 109.148028 32.443314 
L 107.007872 28.924915 
L 104.867715 26.991216 
L 102.727559 26.321761 
L 100.587402 26.002814 
L 98.447246 25.167115 
L 96.307089 23.016877 
L 94.166933 20.601463 
L 92.026776 19.517016 
L 89.886612 20.379143 
L 87.746455 24.100651 
L 85.606299 31.77636 
L 83.466142 42.875527 
L 81.325986 57.379281 
L 79.185821 74.924428 
L 77.045665 94.022509 
L 74.905508 113.482888 
L 72.765352 131.248044 
L 70.625196 146.12732 
L 68.485039 157.861362 
L 66.344883 166.27147 
L 64.204726 170.616916 
L 62.06457 166.640461 
L 59.924413 157.386819 
L 57.784249 146.150505 
L 55.644092 133.077285 
L 53.503936 117.679009 
L 51.363779 103.893042 
L 49.223623 93.40399 
L 47.083466 88.01564 
L 44.94331 85.557017 
L 42.803145 88.039099 
L 40.662989 93.876013 
L 38.522832 100.920353 
L 36.382676 111.763889 
L 34.24252 125.319024 
L 32.102363 130.994379 
L 29.962207 136.1585 
L 27.82205 144.861763 
L 25.681894 155.654266 
L 23.541729 169.027125 
L 21.401573 182.803831 
L 19.261416 198.165179 
L 17.12126 211.883549 
L 14.981103 222.930526 
L 12.840947 219.427856 
L 10.70079 211.328382 
L 8.560626 197.947202 
L 6.420469 188.221219 
L 4.280313 174.99636 
L 2.140156 158.76655 
L 0 143.395569 
z
" style="fill:#1f77b4;fill-opacity:0.3;stroke:#1f77b4;stroke-opacity:0.3;"/>
   </g>
   <g id="PathCollection_1">
    <defs>
     <path d="M 0 3 
C 0.795609 3 1.55874 2.683901 2.12132 2.12132 
C 2.683901 1.55874 3 0.795609 3 0 
C 3 -0.795609 2.683901 -1.55874 2.12132 -2.12132 
C 1.55874 -2.683901 0.795609 -3 0 -3 
C -0.795609 -3 -1.55874 -2.683901 -2.12132 -2.12132 
C -2.683901 -1.55874 -3 -0.795609 -3 0 
C -3 0.795609 -2.683901 1.55874 -2.12132 2.12132 
C -1.55874 2.683901 -0.795609 3 0 3 
z
" id="m9cf84220d0" style="stroke:#000000;"/>
    </defs>
    <g clip-path="url(#pa8efe58efa)">
     <use style="stroke:#000000;" x="236.22275" xlink:href="#m9cf84220d0" y="136.023727"/>
     <use style="stroke:#000000;" x="64.539502" xlink:href="#m9cf84220d0" y="170.711508"/>
     <use style="stroke:#000000;" x="240.374917" xlink:href="#m9cf84220d0" y="119.170934"/>
     <use style="stroke:#000000;" x="33.850831" xlink:href="#m9cf84220d0" y="127.903928"/>
     <use style="stroke:#000000;" x="141.082716" xlink:href="#m9cf84220d0" y="149.002032"/>
     <use style="stroke:#000000;" x="101.951229" xlink:href="#m9cf84220d0" y="26.885523"/>
     <use style="stroke:#000000;" x="121.952645" xlink:href="#m9cf84220d0" y="104.224339"/>
     <use style="stroke:#000000;" x="100.300685" xlink:href="#m9cf84220d0" y="26.20919"/>
     <use style="stroke:#000000;" x="15.177308" xlink:href="#m9cf84220d0" y="223.222972"/>
     <use style="stroke:#000000;" x="173.46585" xlink:href="#m9cf84220d0" y="155.443005"/>
     <use style="stroke:#000000;" x="83.722476" xlink:href="#m9cf84220d0" y="41.751268"/>
     <use style="stroke:#000000;" x="156.799672" xlink:href="#m9cf84220d0" y="105.392905"/>
     <use style="stroke:#000000;" x="76.248339" xlink:href="#m9cf84220d0" y="101.904369"/>
     <use style="stroke:#000000;" x="133.067206" xlink:href="#m9cf84220d0" y="151.794605"/>
     <use style="stroke:#000000;" x="105.723808" xlink:href="#m9cf84220d0" y="27.868346"/>
    </g>
   </g>
   <g id="line2d_1">
    <path clip-path="url(#pa8efe58efa)" d="M 0 188.599037 
L 4.280313 208.886938 
L 6.420469 216.842612 
L 8.560626 221.982106 
L 10.70079 226.731181 
L 12.840947 226.848115 
L 14.981103 223.609171 
L 17.12126 217.888076 
L 19.261416 208.834213 
L 21.401573 197.630026 
L 23.541729 185.163881 
L 25.681894 171.534793 
L 29.962207 146.989006 
L 32.102363 135.952047 
L 34.24252 126.43232 
L 36.382676 119.570416 
L 38.522832 114.672214 
L 40.662989 113.001845 
L 42.803145 112.987766 
L 44.94331 114.774954 
L 47.083466 118.4455 
L 49.223623 124.006875 
L 53.503936 141.583319 
L 55.644092 151.891039 
L 57.784249 159.727541 
L 59.924413 166.283567 
L 62.06457 170.527514 
L 64.204726 171.166693 
L 66.344883 167.857355 
L 68.485039 160.236612 
L 70.625196 148.400502 
L 72.765352 132.706761 
L 77.045665 94.570454 
L 79.185821 75.489431 
L 81.325986 57.937739 
L 83.466142 43.423495 
L 85.606299 32.657854 
L 87.746455 25.67908 
L 89.886612 22.404262 
L 92.026776 21.731803 
L 94.166933 22.570297 
L 96.307089 24.365566 
L 98.447246 25.85876 
L 100.587402 26.550763 
L 102.727559 26.869716 
L 104.867715 27.539164 
L 107.007872 29.473118 
L 109.148028 33.599592 
L 111.288185 40.219151 
L 113.428341 49.532357 
L 115.568506 61.476929 
L 117.708662 75.052793 
L 121.988975 104.415649 
L 124.129131 117.842792 
L 126.269288 129.674863 
L 128.409452 139.04628 
L 130.549609 146.197613 
L 132.689765 151.001556 
L 134.829922 153.617552 
L 136.970078 153.846564 
L 139.110235 152.101203 
L 141.250391 148.577239 
L 143.390548 143.613138 
L 145.530704 137.46694 
L 151.951173 115.580068 
L 154.09133 109.501293 
L 156.231486 106.028476 
L 158.371659 105.540938 
L 160.511815 108.007164 
L 162.651972 113.199024 
L 164.792128 120.778385 
L 169.072441 139.090367 
L 171.212598 147.708221 
L 173.352754 155.081062 
L 175.492911 160.602317 
L 177.633067 163.920379 
L 179.773224 164.875432 
L 181.91338 163.869844 
L 184.053553 160.652064 
L 186.193709 156.434059 
L 190.474022 146.583041 
L 192.614179 141.641075 
L 194.754335 137.33929 
L 196.894492 134.118534 
L 199.034648 132.127983 
L 201.174804 131.414687 
L 203.314961 131.170438 
L 205.455117 131.457045 
L 207.595274 132.265565 
L 209.73543 134.007162 
L 211.875587 136.738112 
L 214.015743 140.284217 
L 216.1559 144.381055 
L 220.436213 153.135014 
L 222.576369 156.82627 
L 224.716525 158.438325 
L 226.856682 159.119443 
L 228.996838 157.090071 
L 231.137011 152.591194 
L 233.277168 146.581816 
L 235.417324 139.254914 
L 237.55748 130.873114 
L 241.837793 113.19156 
L 243.97795 105.306641 
L 246.118106 98.670008 
L 248.258263 93.368138 
L 250.398435 89.91391 
L 252.538592 88.547863 
L 254.678748 89.064256 
L 258.959061 92.676126 
L 261.099218 95.148484 
L 263.239374 98.153635 
L 267.519687 104.946288 
L 269.659844 107.784355 
L 271.8 110.409526 
L 271.8 110.409526 
" style="fill:none;stroke:#0000ff;stroke-linecap:round;stroke-width:1.5;"/>
   </g>
  </g>
 </g>
 <defs>
  <clipPath id="pa8efe58efa">
   <rect height="271.8" width="271.8" x="0" y="0"/>
  </clipPath>
 </defs>
</svg>
