<?xml version="1.0" encoding="utf-8" standalone="no"?>
<!DOCTYPE svg PUBLIC "-//W3C//DTD SVG 1.1//EN"
  "http://www.w3.org/Graphics/SVG/1.1/DTD/svg11.dtd">
<!-- Created with matplotlib (https://matplotlib.org/) -->
<svg height="271.8pt" version="1.1" viewBox="0 0 271.8 271.8" width="271.8pt" xmlns="http://www.w3.org/2000/svg" xmlns:xlink="http://www.w3.org/1999/xlink">
 <metadata>
  <rdf:RDF xmlns:cc="http://creativecommons.org/ns#" xmlns:dc="http://purl.org/dc/elements/1.1/" xmlns:rdf="http://www.w3.org/1999/02/22-rdf-syntax-ns#">
   <cc:Work>
    <dc:type rdf:resource="http://purl.org/dc/dcmitype/StillImage"/>
    <dc:date>2020-09-05T10:50:47.935612</dc:date>
    <dc:format>image/svg+xml</dc:format>
    <dc:creator>
     <cc:Agent>
      <dc:title>Matplotlib v3.3.1, https://matplotlib.org/</dc:title>
     </cc:Agent>
    </dc:creator>
   </cc:Work>
  </rdf:RDF>
 </metadata>
 <defs>
  <style type="text/css">*{stroke-linecap:butt;stroke-linejoin:round;}</style>
 </defs>
 <g id="figure_1">
  <g id="patch_1">
   <path d="M 0 271.8 
L 271.8 271.8 
L 271.8 0 
L 0 0 
z
" style="fill:#ffffff;"/>
  </g>
  <g id="axes_1">
   <g id="PathCollection_1">
    <defs>
     <path d="M 0 3 
C 0.795609 3 1.55874 2.683901 2.12132 2.12132 
C 2.683901 1.55874 3 0.795609 3 0 
C 3 -0.795609 2.683901 -1.55874 2.12132 -2.12132 
C 1.55874 -2.683901 0.795609 -3 0 -3 
C -0.795609 -3 -1.55874 -2.683901 -2.12132 -2.12132 
C -2.683901 -1.55874 -3 -0.795609 -3 0 
C -3 0.795609 -2.683901 1.55874 -2.12132 2.12132 
C -1.55874 2.683901 -0.795609 3 0 3 
z
" id="m8b92709a8d" style="stroke:#000000;"/>
    </defs>
    <g clip-path="url(#p70c2f8e299)">
     <use style="stroke:#000000;" x="236.22275" xlink:href="#m8b92709a8d" y="147.269589"/>
     <use style="stroke:#000000;" x="64.539502" xlink:href="#m8b92709a8d" y="185.573624"/>
     <use style="stroke:#000000;" x="240.374917" xlink:href="#m8b92709a8d" y="128.659867"/>
     <use style="stroke:#000000;" x="33.850831" xlink:href="#m8b92709a8d" y="138.303288"/>
     <use style="stroke:#000000;" x="141.082716" xlink:href="#m8b92709a8d" y="161.600902"/>
     <use style="stroke:#000000;" x="101.951229" xlink:href="#m8b92709a8d" y="26.753562"/>
     <use style="stroke:#000000;" x="121.952645" xlink:href="#m8b92709a8d" y="112.155066"/>
     <use style="stroke:#000000;" x="100.300685" xlink:href="#m8b92709a8d" y="26.00672"/>
     <use style="stroke:#000000;" x="15.177308" xlink:href="#m8b92709a8d" y="243.559488"/>
     <use style="stroke:#000000;" x="173.46585" xlink:href="#m8b92709a8d" y="168.713356"/>
     <use style="stroke:#000000;" x="83.722476" xlink:href="#m8b92709a8d" y="43.169084"/>
     <use style="stroke:#000000;" x="156.799672" xlink:href="#m8b92709a8d" y="113.445458"/>
     <use style="stroke:#000000;" x="76.248339" xlink:href="#m8b92709a8d" y="109.593236"/>
     <use style="stroke:#000000;" x="133.067206" xlink:href="#m8b92709a8d" y="164.684605"/>
     <use style="stroke:#000000;" x="105.723808" xlink:href="#m8b92709a8d" y="27.838846"/>
    </g>
   </g>
   <g id="line2d_1"/>
  </g>
 </g>
 <defs>
  <clipPath id="p70c2f8e299">
   <rect height="271.8" width="271.8" x="0" y="0"/>
  </clipPath>
 </defs>
</svg>
