<?xml version="1.0" encoding="utf-8" standalone="no"?>
<!DOCTYPE svg PUBLIC "-//W3C//DTD SVG 1.1//EN"
  "http://www.w3.org/Graphics/SVG/1.1/DTD/svg11.dtd">
<!-- Created with matplotlib (https://matplotlib.org/) -->
<svg height="271.8pt" version="1.1" viewBox="0 0 271.8 271.8" width="271.8pt" xmlns="http://www.w3.org/2000/svg" xmlns:xlink="http://www.w3.org/1999/xlink">
 <metadata>
  <rdf:RDF xmlns:cc="http://creativecommons.org/ns#" xmlns:dc="http://purl.org/dc/elements/1.1/" xmlns:rdf="http://www.w3.org/1999/02/22-rdf-syntax-ns#">
   <cc:Work>
    <dc:type rdf:resource="http://purl.org/dc/dcmitype/StillImage"/>
    <dc:date>2020-09-05T10:50:47.773188</dc:date>
    <dc:format>image/svg+xml</dc:format>
    <dc:creator>
     <cc:Agent>
      <dc:title>Matplotlib v3.3.1, https://matplotlib.org/</dc:title>
     </cc:Agent>
    </dc:creator>
   </cc:Work>
  </rdf:RDF>
 </metadata>
 <defs>
  <style type="text/css">*{stroke-linecap:butt;stroke-linejoin:round;}</style>
 </defs>
 <g id="figure_1">
  <g id="patch_1">
   <path d="M 0 271.8 
L 271.8 271.8 
L 271.8 0 
L 0 0 
z
" style="fill:#ffffff;"/>
  </g>
  <g id="axes_1">
   <g id="PathCollection_1">
    <defs>
     <path d="M 0 3 
C 0.795609 3 1.55874 2.683901 2.12132 2.12132 
C 2.683901 1.55874 3 0.795609 3 0 
C 3 -0.795609 2.683901 -1.55874 2.12132 -2.12132 
C 1.55874 -2.683901 0.795609 -3 0 -3 
C -0.795609 -3 -1.55874 -2.683901 -2.12132 -2.12132 
C -2.683901 -1.55874 -3 -0.795609 -3 0 
C -3 0.795609 -2.683901 1.55874 -2.12132 2.12132 
C -1.55874 2.683901 -0.795609 3 0 3 
z
" id="mb5bf936fc7" style="stroke:#000000;"/>
    </defs>
    <g clip-path="url(#p4f9f809df8)">
     <use style="stroke:#000000;" x="236.22275" xlink:href="#mb5bf936fc7" y="147.269589"/>
     <use style="stroke:#000000;" x="64.539502" xlink:href="#mb5bf936fc7" y="185.573624"/>
     <use style="stroke:#000000;" x="240.374917" xlink:href="#mb5bf936fc7" y="128.659867"/>
     <use style="stroke:#000000;" x="33.850831" xlink:href="#mb5bf936fc7" y="138.303288"/>
     <use style="stroke:#000000;" x="141.082716" xlink:href="#mb5bf936fc7" y="161.600902"/>
     <use style="stroke:#000000;" x="101.951229" xlink:href="#mb5bf936fc7" y="26.753562"/>
     <use style="stroke:#000000;" x="121.952645" xlink:href="#mb5bf936fc7" y="112.155066"/>
     <use style="stroke:#000000;" x="100.300685" xlink:href="#mb5bf936fc7" y="26.00672"/>
     <use style="stroke:#000000;" x="15.177308" xlink:href="#mb5bf936fc7" y="243.559488"/>
     <use style="stroke:#000000;" x="173.46585" xlink:href="#mb5bf936fc7" y="168.713356"/>
     <use style="stroke:#000000;" x="83.722476" xlink:href="#mb5bf936fc7" y="43.169084"/>
     <use style="stroke:#000000;" x="156.799672" xlink:href="#mb5bf936fc7" y="113.445458"/>
     <use style="stroke:#000000;" x="76.248339" xlink:href="#mb5bf936fc7" y="109.593236"/>
     <use style="stroke:#000000;" x="133.067206" xlink:href="#mb5bf936fc7" y="164.684605"/>
     <use style="stroke:#000000;" x="105.723808" xlink:href="#mb5bf936fc7" y="27.838846"/>
    </g>
   </g>
   <g id="line2d_1">
    <path clip-path="url(#p4f9f809df8)" d="M 0 205.325956 
L 4.280313 227.728901 
L 6.420469 236.513966 
L 8.560626 242.18926 
L 10.70079 247.433433 
L 12.840947 247.562558 
L 14.981103 243.985949 
L 17.12126 237.668421 
L 19.261416 227.670679 
L 21.401573 215.298439 
L 23.541729 201.532679 
L 25.681894 186.482737 
L 29.962207 159.378015 
L 32.102363 147.190437 
L 34.24252 136.678263 
L 36.382676 129.100996 
L 38.522832 123.692148 
L 40.662989 121.847641 
L 42.803145 121.832094 
L 44.94331 123.805599 
L 47.083466 127.858805 
L 49.223623 133.999962 
L 53.503936 153.408777 
L 55.644092 164.791092 
L 57.784249 173.444562 
L 59.924413 180.684064 
L 62.06457 185.370448 
L 64.204726 186.076263 
L 66.344883 182.421921 
L 68.485039 174.006704 
L 70.625196 160.936662 
L 72.765352 143.606824 
L 77.045665 101.49475 
L 79.185821 80.424501 
L 81.325986 61.043019 
L 83.466142 45.015643 
L 85.606299 33.127667 
L 87.746455 25.421345 
L 89.886612 21.805123 
L 92.026776 21.062558 
L 94.166933 21.988467 
L 96.307089 23.970895 
L 98.447246 25.619756 
L 100.587402 26.383902 
L 102.727559 26.736107 
L 104.867715 27.475346 
L 107.007872 29.610918 
L 109.148028 34.167583 
L 111.288185 41.47724 
L 113.428341 51.761362 
L 115.568506 64.951174 
L 117.708662 79.942342 
L 121.988975 112.366321 
L 124.129131 127.193264 
L 126.269288 140.258847 
L 128.409452 150.607248 
L 130.549609 158.504118 
L 132.689765 163.80888 
L 134.829922 166.697598 
L 136.970078 166.950484 
L 139.110235 165.023166 
L 141.250391 161.131824 
L 143.390548 155.650208 
L 145.530704 148.86326 
L 151.951173 124.694647 
L 154.09133 117.982151 
L 156.231486 114.147288 
L 158.371659 113.608923 
L 160.511815 116.332257 
L 162.651972 122.065376 
L 164.792128 130.434897 
L 169.072441 150.655931 
L 171.212598 160.172209 
L 173.352754 168.313681 
L 175.492911 174.410534 
L 177.633067 178.074509 
L 179.773224 179.129128 
L 181.91338 178.018707 
L 184.053553 174.465467 
L 186.193709 169.807729 
L 190.474022 158.929728 
L 192.614179 153.472555 
L 194.754335 148.722302 
L 196.894492 145.165777 
L 199.034648 142.967708 
L 201.174804 142.18005 
L 203.314961 141.910338 
L 205.455117 142.226824 
L 207.595274 143.119633 
L 209.73543 145.042794 
L 211.875587 148.058449 
L 214.015743 151.974242 
L 216.1559 156.498182 
L 220.436213 166.164754 
L 222.576369 170.240829 
L 224.716525 172.020943 
L 226.856682 172.773069 
L 228.996838 170.532132 
L 231.137011 165.56424 
L 233.277168 158.928376 
L 235.417324 150.837633 
L 237.55748 141.582017 
L 241.837793 122.057135 
L 243.97795 113.350201 
L 246.118106 106.021689 
L 248.258263 100.16709 
L 250.398435 96.352754 
L 252.538592 94.844294 
L 254.678748 95.414522 
L 258.959061 99.402935 
L 261.099218 102.13304 
L 263.239374 105.451482 
L 267.519687 112.95228 
L 269.659844 116.086219 
L 271.8 118.985068 
L 271.8 118.985068 
" style="fill:none;stroke:#0000ff;stroke-linecap:round;stroke-width:1.5;"/>
   </g>
  </g>
 </g>
 <defs>
  <clipPath id="p4f9f809df8">
   <rect height="271.8" width="271.8" x="0" y="0"/>
  </clipPath>
 </defs>
</svg>
